<?xml version="1.0" standalone="no"?><!DOCTYPE svg PUBLIC "-//W3C//DTD SVG 1.1//EN" "http://www.w3.org/Graphics/SVG/1.1/DTD/svg11.dtd"><svg t="1705302811066" class="icon" viewBox="0 0 1803 1024" version="1.1" xmlns="http://www.w3.org/2000/svg" p-id="58244" xmlns:xlink="http://www.w3.org/1999/xlink" width="84.515625" height="48"><path d="M228.703522 763.552478H222.070448L216.048716 5.654925A6.159284 6.159284 0 0 0 215.238687 2.521791C216.002866 1.222687 217.210269 0.38209 218.555224 0.38209 220.847761 0.38209 222.681791 2.751045 222.681791 5.654925L228.703522 763.567761z" fill="#DBD5B9" p-id="58245"></path><path d="M229.253731 748.895522h-15.283582L220.694925 3.087284A5.654925 5.654925 0 0 1 221.61194 0a5.50209 5.50209 0 0 1 0.917015 3.087284L229.253731 748.895522z" fill="#C2BB9E" p-id="58246"></path><path d="M580.776119 1024H349.61194C257.268537 1024 188.522985 992.133731 137.552239 947.58209h231.164179c50.955463 44.551642 119.716299 76.41791 212.059701 76.41791" fill="#576071" p-id="58247"></path><path d="M1727.044776 947.58209c-22.558567 69.463881-77.487761 75.928836-92.358686 76.372059-2.399522 0.091701-3.759761 0-3.759762 0H575.625552c-90.937313 0-158.643582-31.850985-208.819582-76.372059h1360.238806z" fill="#7E858F" p-id="58248"></path><path d="M366.80597 947.58209H138.958328C22.268179 867.175164 0 733.61194 0 733.61194l228.031045 0.947582c2.231403 12.012896 27.816119 136.558806 138.774925 213.022568" fill="#1F2021" p-id="58249"></path><path d="M1802.927761 613.80394c0 0.611343-0.305672 1.130985-0.764179 1.451941a0.305672 0.305672 0 0 1-0.152836 0.076418c-115.818985 72.872119-72.27606 235.978507-72.276059 235.978507 7.030448 41.877015 3.056716 72.383045-6.602508 94.605373H1591.93791c9.674507-22.222328 13.632955-52.728358 6.602508-94.605373 0 0-43.527642-163.106388 72.27606-235.978507a0.320955 0.320955 0 0 0 0.152835-0.076418 1.772896 1.772896 0 0 0 0.76418-1.451941c0-1.008716-0.871164-1.818746-1.925732-1.818746h131.209552c1.069851 0 1.925731 0.81003 1.925732 1.818746" fill="#525659" p-id="58250"></path><path d="M1681.19403 613.177313c0 0.611343-0.305672 1.130985-0.748896 1.467224a0.305672 0.305672 0 0 1-0.137552 0.076418c-111.035224 73.361194-69.295761 237.613851-69.295761 237.613851 6.74006 42.182687 2.949731 72.887403-6.327403 95.247284H368.120358c-109.629134-75.974687-135.947463-199.145075-138.774925-213.909015L229.253731 733.153433l72.887403 0.305671 155.43403 0.641911c15.894925-0.672478 13.143881 9.521672 13.143881 9.521672 13.969194 71.08394 89.363104 77.044537 107.35188 77.457194 2.491224 0.045851 3.866746 0 3.866747 0h516.080716c180.988179-17.667821 171.328955-199.771701 171.328955-199.771702 2.64406-9.766209 8.451821-9.964896 8.940896-9.964895h401.056477a1.83403 1.83403 0 0 1 1.849314 1.834029" fill="#303135" p-id="58251"></path><path d="M472.216836 601.836896c-24.453731 0-44.276537 19.471284-44.276537 43.466507 0 23.995224 19.822806 43.481791 44.276537 43.481791 24.453731 0 44.261254-19.471284 44.261254-43.481791 0-23.995224-19.807522-43.466507-44.261254-43.466507z m216.400239 0c-24.453731 0-44.291821 19.471284-44.291821 43.466507 0 23.995224 19.83809 43.481791 44.291821 43.481791 24.438448 0 44.276537-19.471284 44.276537-43.481791 0-23.995224-19.83809-43.466507-44.276537-43.466507z m237.048358 5.013014a44.719761 44.719761 0 0 0-20.663403-5.013014c-8.940896 0-17.270448 2.598209-24.224478 7.076298a43.252537 43.252537 0 0 0-20.036776 36.374925c0 24.025791 19.807522 43.497075 44.261254 43.497075 24.453731 0 44.276537-19.471284 44.276537-43.481791 0-16.674388-9.567522-31.163224-23.597851-38.453493z m220.450388 2.384239a44.933731 44.933731 0 0 0-9.81206-4.890746h-0.015283a45.010149 45.010149 0 0 0-14.870926-2.506507c-24.469015 0-44.291821 19.471284-44.291821 43.466507 0 23.995224 19.822806 43.481791 44.291821 43.481791 24.453731 0 44.261254-19.471284 44.261254-43.481791 0-15.023761-7.76406-28.274627-19.562985-36.069254z m-457.498746-7.397253c-24.453731 0-44.291821 19.471284-44.291821 43.466507 0 23.995224 19.83809 43.481791 44.291821 43.481791 24.438448 0 44.276537-19.471284 44.276537-43.481791 0-23.995224-19.83809-43.466507-44.276537-43.466507zM758.661731 519.641791v183.402985h501.912836c13.296716-40.914149 11.416836-76.081672 11.416836-76.081672 2.766328-10.178866 9.00203-9.964896 9.00203-9.964895H1436.656716V519.641791H758.677015z m-286.444895 82.195105c-24.453731 0-44.276537 19.471284-44.276537 43.466507 0 23.995224 19.822806 43.481791 44.276537 43.481791 24.453731 0 44.261254-19.471284 44.261254-43.481791 0-23.995224-19.807522-43.466507-44.261254-43.466507z" fill="#C6C6C6" p-id="58252"></path><path d="M678.560478 688.785194c-24.545433 0-44.45994-19.471284-44.459941-43.481791 0-23.995224 19.914507-43.466507 44.475224-43.466507 24.530149 0 44.444657 19.471284 44.444657 43.466507 0 23.995224-19.914507 43.481791-44.45994 43.481791zM519.641791 703.044776h229.253731V519.641791H519.641791v183.402985z" fill="#A4A8AB" p-id="58253"></path><path d="M460.035821 702.89194c-24.606567 0-44.566925-19.349015-44.566925-43.176119 0-23.842388 19.960358-43.176119 44.551641-43.17612 24.606567 0 44.551642 19.333731 44.551642 43.17612 0 23.842388-19.945075 43.160836-44.551642 43.160836z m58.459701 14.152597V534.925373H397.373134v218.341254l49.427105 0.198686c16.00191-0.672478 13.220299 9.445254 13.220298 9.445254a90.020299 90.020299 0 0 0 11.707224 30.261493c14.504119 1.895164 24.377313 1.543642 24.377314 1.543641h635.613612c38.850866-3.729194 70.564299-13.52597 96.454686-27.158925A190.143045 190.143045 0 0 0 1253.253731 717.044537H518.495522z" fill="#A4A8AB" p-id="58254"></path><path d="M1237.970149 779.462687c-25.110925 37.139104-67.15606 69.326328-137.475821 76.402626h-525.296716s-70.610149 2.598209-101.406567-49.320119c14.641672 2.017433 24.606567 1.650627 24.606567 1.650627h642.124418c39.248239-3.958448 71.282627-14.305433 97.448119-28.733134M412.656716 748.895522l-106.985074-0.443223V534.925373h106.985074" fill="#A4A8AB" p-id="58255"></path><path d="M443.223881 519.641791h-76.417911V366.80597h76.417911v136.772776z" fill="#969696" p-id="58256"></path><path d="M443.223881 519.641791h122.268656V366.80597h-122.268656zM565.492537 519.641791h198.686567V366.80597H565.492537z" fill="#969696" p-id="58257"></path><path d="M1283.820896 519.641791H764.179104V366.80597h426.182687l11.814209 19.272597 14.305433 23.414448 38.850866 63.549134 7.443104 12.181015 11.233433 18.340299z" fill="#BABABA" p-id="58258"></path><path d="M550.208955 397.373134h-76.41791V213.970149h76.41791v158.949254z" fill="#848484" p-id="58259"></path><path d="M550.208955 213.970149v183.402985h76.417911V213.970149z" fill="#BABABA" p-id="58260"></path><path d="M519.641791 657.19403a45.850746 45.850746 0 1 1-91.701492 0 45.850746 45.850746 0 0 1 91.701492 0" fill="#38A5B1" p-id="58261"></path><path d="M733.61194 657.19403a45.850746 45.850746 0 1 1-91.701492 0 45.850746 45.850746 0 0 1 91.701492 0" fill="#38A5B1" p-id="58262"></path><path d="M962.865672 657.19403a45.850746 45.850746 0 1 1-91.701493 0 45.850746 45.850746 0 0 1 91.701493 0" fill="#38A5B1" p-id="58263"></path><path d="M1161.552239 657.19403a45.850746 45.850746 0 1 1-91.701493 0 45.850746 45.850746 0 0 1 91.701493 0" fill="#38A5B1" p-id="58264"></path><path d="M1543.641791 748.895522a45.850746 45.850746 0 1 1-91.701492 0 45.850746 45.850746 0 0 1 91.701492 0" fill="#050B25" p-id="58265"></path><path d="M596.059701 305.671642h305.671642v-15.283582H596.059701z" fill="#23221E" p-id="58266"></path><path d="M596.059701 336.238806h305.671642v-15.283582H596.059701z" fill="#23221E" p-id="58267"></path><path d="M898.949731 351.522388h5.563224v-76.41791h-5.563224z" fill="#23221E" p-id="58268"></path><path d="M853.098985 351.522388h5.563224v-76.41791h-5.563224z" fill="#23221E" p-id="58269"></path><path d="M791.964657 351.522388h5.563224v-76.41791h-5.563224z" fill="#23221E" p-id="58270"></path><path d="M761.397493 351.522388h5.563223v-76.41791h-5.563223z" fill="#23221E" p-id="58271"></path><path d="M700.263164 351.522388h5.563224v-76.41791h-5.563224z" fill="#23221E" p-id="58272"></path><path d="M654.412418 351.522388h5.563224v-76.41791h-5.563224z" fill="#23221E" p-id="58273"></path><path d="M244.537313 244.537313l-3.28597 8.329553-2.751044 6.95403h-64.343881l-2.751045-6.95403L168.119403 244.537313z" fill="#D62B1F" p-id="58274"></path><path d="M244.537313 259.820896l-4.95188 15.283582h-66.514149L168.119403 259.820896z" fill="#A62224" p-id="58275"></path><path d="M244.537313 41.953433V45.850746h-45.850746V30.567164h3.66806v11.386269z" fill="#C2BB9E" p-id="58276"></path><path d="M198.686567 45.850746h30.567164V30.567164h-30.567164z" fill="#DBD5B9" p-id="58277"></path><path d="M1161.552239 412.656716c7.825194 8.023881 14.93206 16.506269 21.855522 25.065075a606.208 606.208 0 0 1 38.208955 53.492537c5.823045 9.246567 11.462687 18.615403 16.353433 28.427463a349.336836 349.336836 0 0 1-21.855522-25.065075 597.343522 597.343522 0 0 1-19.868657-26.287761 599.529075 599.529075 0 0 1-18.340298-27.204776A339.005134 339.005134 0 0 1 1161.552239 412.656716M596.059701 229.253731c0.748896 11.462687 1.23797 22.925373 1.497792 34.38806a1446.896716 1446.896716 0 0 1 0 68.776119c-0.244537 11.462687-0.764179 22.925373-1.497792 34.38806a793.676418 793.676418 0 0 1-1.497791-34.38806 1446.881433 1446.881433 0 0 1 0-68.776119c0.259821-11.462687 0.764179-22.925373 1.497791-34.38806" fill="#E8E8E8" p-id="58278"></path><path d="M901.731343 534.925373l15.283582-0.473791 15.283582-0.366806 30.567165-0.718328c20.373015-0.366806 40.761313-0.718328 61.134328-0.917015 20.373015-0.305672 40.761313-0.366806 61.134328-0.550209l61.134329-0.16812 61.134328 0.152836c20.373015 0.198687 40.761313 0.244537 61.134328 0.550209 20.373015 0.21397 40.761313 0.550209 61.134329 0.917015l30.567164 0.733612 15.283582 0.351523L1390.80597 534.925373l-15.283582 0.489075-15.283582 0.351522-30.567164 0.733612c-20.373015 0.366806-40.761313 0.703045-61.134329 0.917015-20.373015 0.305672-40.761313 0.351522-61.134328 0.534925l-61.134328 0.16812-61.134329-0.16812c-20.373015-0.183403-40.761313-0.244537-61.134328-0.534925a7734.149731 7734.149731 0 0 1-61.134328-0.932298l-30.567165-0.718329-15.283582-0.366806L901.731343 534.925373z" fill="#FDFAE8" p-id="58279"></path></svg>