<?xml version="1.0" standalone="no"?><!DOCTYPE svg PUBLIC "-//W3C//DTD SVG 1.1//EN" "http://www.w3.org/Graphics/SVG/1.1/DTD/svg11.dtd"><svg t="1764295771699" class="icon" viewBox="0 0 1024 1024" version="1.1" xmlns="http://www.w3.org/2000/svg" p-id="6052" xmlns:xlink="http://www.w3.org/1999/xlink" width="200" height="200"><path d="M512 188.631579c104.178526 0 188.631579 84.453053 188.631579 188.631579 0 57.290105-25.546105 108.611368-65.859368 143.225263 115.927579 45.662316 198.413474 157.776842 200.555789 289.428211L835.368421 815.157895a33.684211 33.684211 0 1 1-67.368421 0 249.330526 249.330526 0 0 0-18.189474-93.642106 247.902316 247.902316 0 0 0-26.960842-49.475368l-0.741052-1.037474a249.882947 249.882947 0 0 0-29.332211-34.290526l-1.077895-1.050947a250.799158 250.799158 0 0 0-65.536-45.487158l-3.395368-1.603369-0.646737-0.296421a247.740632 247.740632 0 0 0-9.054316-3.907368l-1.185684-0.485053c-2.344421-0.943158-4.688842-1.845895-7.06021-2.721684l-4.042106-1.455158c-1.347368-0.471579-2.708211-0.929684-4.069052-1.374316l-0.970106-0.309894a247.242105 247.242105 0 0 0-1.751579-0.565895l-2.236631-0.700632a247.457684 247.457684 0 0 0-1.562948-0.471579l-3.408842-0.983579a248.131368 248.131368 0 0 0-10.361263-2.694736l-1.118316-0.269474-1.118315-0.256a248.023579 248.023579 0 0 0-15.440842-2.991158l-0.768-0.134737a248.454737 248.454737 0 0 0-0.970106-0.134737l-2.627368-0.40421a248.993684 248.993684 0 0 0-15.696842-1.738105l-0.633263-0.040422a252.698947 252.698947 0 0 0-24.32-0.687157l1.226105-0.026948-1.536 0.026948a253.237895 253.237895 0 0 0-43.695158 4.769684l-1.805474 0.363789-2.654316 0.565895-4.257684 0.970105-3.341473 0.808421-0.552421 0.134737a247.686737 247.686737 0 0 0-14.322527 4.109474l-1.42821 0.471579-0.592842 0.188631c-4.149895 1.360842-8.245895 2.829474-12.288 4.405895l-0.633264 0.256-3.166315 1.266526c-1.711158 0.687158-3.408842 1.401263-5.093053 2.142316l-1.468632 0.633263a248.32 248.32 0 0 0-8.421052 3.907369l-2.15579 1.064421-1.751579 0.889263-2.70821 1.401263a248.818526 248.818526 0 0 0-16.976842 9.781895l-1.118316 0.700631a249.815579 249.815579 0 0 0-25.721263 18.79579l-0.808421 0.673684a250.718316 250.718316 0 0 0-12.961684 11.695158l-0.808422 0.781474-0.929684 0.902737-2.506105 2.506105a250.731789 250.731789 0 0 0-17.475368 19.698526l-0.929685 1.172211a250.368 250.368 0 0 0-15.683368 22.312421l-0.323368 0.525473-0.997053 1.589895-1.118316 1.859369a249.074526 249.074526 0 0 0-4.486737 7.814736l-0.741052 1.360843a248.387368 248.387368 0 0 0-21.301895 53.126736l-1.104842 4.176842-0.188632 0.754527c-4.244211 16.976842-6.736842 34.654316-7.302737 52.816842L269.473684 815.157895a33.684211 33.684211 0 1 1-67.368421 0c0-130.465684 78.901895-242.499368 191.59579-290.977684A188.227368 188.227368 0 0 1 323.368421 377.263158c0-104.178526 84.453053-188.631579 188.631579-188.631579z m0 67.368421a121.263158 121.263158 0 1 0 0 242.526316 121.263158 121.263158 0 0 0 0-242.526316z" fill="#2c2c2c" p-id="6053"></path></svg>