<?xml version="1.0" standalone="no"?><!DOCTYPE svg PUBLIC "-//W3C//DTD SVG 1.1//EN" "http://www.w3.org/Graphics/SVG/1.1/DTD/svg11.dtd"><svg t="1683273898650" class="icon" viewBox="0 0 1117 1024" version="1.1" xmlns="http://www.w3.org/2000/svg" p-id="37042" xmlns:xlink="http://www.w3.org/1999/xlink" width="52.359375" height="48"><path d="M617.053091 451.165091l-25.227636 121.483636-7.214546 30.068364-25.134545 121.716364H303.941818l-5.399273 28.206545h298.635637l39.610182-179.991273 25.134545-121.483636h358.027636l-26.996363 121.483636H707.025455L642.327273 874.123636H271.592727l-5.399272 28.392728h415.511272l39.610182-178.082909 25.134546-121.716364h241.105454l-25.134545 121.716364h-170.961455l-37.748364 178.082909-26.996363 121.483636H169.146182l64.698182-299.566545H0l26.996364-121.716364 5.352727-30.068364 26.996364-121.483636h232.075636l64.791273-299.613091h255.394909L644.049455 0H1117.090909l-26.996364 121.669818h-402.897454l-5.445818 29.882182-25.134546 121.669818H401.221818l-7.168 28.16h300.404364l5.399273-28.16 26.996363-121.669818h357.934546l-26.996364 121.669818H771.723636l-32.349091 149.736727H368.826182l-7.261091 28.206546h255.534545z m-102.586182 151.552l5.399273-30.068364H336.384l-7.214545 30.068364h185.297454z m-411.880727-30.068364l-5.399273 30.068364h161.838546l7.214545-30.068364H102.586182z" fill="#327341" p-id="37043"></path></svg>