<?xml version="1.0" standalone="no"?><!DOCTYPE svg PUBLIC "-//W3C//DTD SVG 1.1//EN" "http://www.w3.org/Graphics/SVG/1.1/DTD/svg11.dtd"><svg t="1743391769318" class="icon" viewBox="0 0 1024 1024" version="1.1" xmlns="http://www.w3.org/2000/svg" p-id="4408" xmlns:xlink="http://www.w3.org/1999/xlink" width="200" height="200"><path d="M128 376.32c-11.946667 0-21.333333-9.386667-21.333333-21.333333V213.333333A106.666667 106.666667 0 0 1 213.333333 106.666667h129.706667c11.946667 0 21.333333 9.386667 21.333333 21.333333s-9.386667 21.333333-21.333333 21.333333H213.333333c-35.413333 0-64 28.586667-64 64v141.653334c0 11.946667-9.386667 21.333333-21.333333 21.333333zM896 376.32c-11.946667 0-21.333333-9.386667-21.333333-21.333333V213.333333c0-35.413333-28.586667-64-64-64h-129.706667c-11.946667 0-21.333333-9.386667-21.333333-21.333333s9.386667-21.333333 21.333333-21.333333H810.666667A106.666667 106.666667 0 0 1 917.333333 213.333333v141.653334c0 11.946667-9.386667 21.333333-21.333333 21.333333z" fill="#666666" p-id="4409"></path><path d="M896 376.32c-11.946667 0-21.333333-9.386667-21.333333-21.333333V213.333333c0-35.413333-28.586667-64-64-64h-129.706667c-11.946667 0-21.333333-9.386667-21.333333-21.333333s9.386667-21.333333 21.333333-21.333333H810.666667A106.666667 106.666667 0 0 1 917.333333 213.333333v141.653334c0 11.946667-9.386667 21.333333-21.333333 21.333333zM128 376.32c-11.946667 0-21.333333-9.386667-21.333333-21.333333V213.333333A106.666667 106.666667 0 0 1 213.333333 106.666667h129.706667c11.946667 0 21.333333 9.386667 21.333333 21.333333s-9.386667 21.333333-21.333333 21.333333H213.333333c-35.413333 0-64 28.586667-64 64v141.653334c0 11.946667-9.386667 21.333333-21.333333 21.333333zM343.04 917.333333H213.333333A106.666667 106.666667 0 0 1 106.666667 810.666667v-141.653334c0-11.946667 9.386667-21.333333 21.333333-21.333333s21.333333 9.386667 21.333333 21.333333V810.666667c0 35.413333 28.586667 64 64 64h129.706667c11.946667 0 21.333333 9.386667 21.333333 21.333333s-9.813333 21.333333-21.333333 21.333333zM810.666667 917.333333h-129.706667c-11.946667 0-21.333333-9.386667-21.333333-21.333333s9.386667-21.333333 21.333333-21.333333H810.666667c35.413333 0 64-28.586667 64-64v-141.653334c0-11.946667 9.386667-21.333333 21.333333-21.333333s21.333333 9.386667 21.333333 21.333333V810.666667a106.666667 106.666667 0 0 1-106.666666 106.666666z" fill="#666666" p-id="4410"></path><path d="M810.666667 917.333333h-129.706667c-11.946667 0-21.333333-9.386667-21.333333-21.333333s9.386667-21.333333 21.333333-21.333333H810.666667c35.413333 0 64-28.586667 64-64v-141.653334c0-11.946667 9.386667-21.333333 21.333333-21.333333s21.333333 9.386667 21.333333 21.333333V810.666667a106.666667 106.666667 0 0 1-106.666666 106.666666zM343.04 917.333333H213.333333A106.666667 106.666667 0 0 1 106.666667 810.666667v-141.653334c0-11.946667 9.386667-21.333333 21.333333-21.333333s21.333333 9.386667 21.333333 21.333333V810.666667c0 35.413333 28.586667 64 64 64h129.706667c11.946667 0 21.333333 9.386667 21.333333 21.333333s-9.813333 21.333333-21.333333 21.333333z" fill="#666666" p-id="4411"></path></svg>