<?xml version="1.0" standalone="no"?><!DOCTYPE svg PUBLIC "-//W3C//DTD SVG 1.1//EN" "http://www.w3.org/Graphics/SVG/1.1/DTD/svg11.dtd"><svg t="1690943690517" class="icon" viewBox="0 0 1324 1024" version="1.1" xmlns="http://www.w3.org/2000/svg" p-id="19077" xmlns:xlink="http://www.w3.org/1999/xlink" width="62.0625" height="48"><path d="M300.773465 793.529419a68.537367 68.537367 0 0 0-44.031992 69.80854 68.678609 68.678609 0 0 0 62.110886 62.463989l701.404569 23.092962c77.576814-0.529655 65.959713 6.302895 117.530462-146.44963 51.623715-152.717215 148.162181-406.01593 148.162181-406.01593 9.180688-20.568272 29.272271-78.618469 28.248271-90.888812a52.63006 52.63006 0 0 0-56.937921-47.863164c-11.881929 0.988689-104.165499 49.875853-143.483561 70.585367-134.97377 71.132677-813.020549 465.266678-813.02055 465.266678" fill="#28A9FF" p-id="19078"></path><path d="M1189.305174 655.766132c-0.211862-0.176552-822.112962-597.450931-892.221639-645.826095A55.472542 55.472542 0 0 0 265.357196 0.000177a55.507852 55.507852 0 0 0-55.613784 55.401921 451.989991 451.989991 0 0 0 1.694896 12.393929c0.600276 3.990068 96.167708 623.227479 116.647704 741.834907 20.479996 118.607428 19.420686 231.953615 101.887983 211.738446 82.502606-20.232824 577.50059-153.741215 678.858917-188.892657 30.049098-10.38124 44.914751-14.953928 67.266196-26.659306 0.635586-0.353103 7.644688-4.413792 8.598067-5.067034a91.100674 91.100674 0 0 0 40.836407-75.970193c0-28.883857-15.218756-52.294612-36.228408-69.031713" fill="#2DC7CD" opacity=".5" p-id="19079"></path><path d="M1207.11924 692.859643a68.572678 68.572678 0 0 1 49.787578 65.853782 68.607988 68.607988 0 0 1-56.620128 67.442747l-853.097784 103.1415c-77.329642 5.985102-65.16523 11.793653-129.483013-136.068391C153.388111 645.349583 35.822339 401.037349 35.822339 401.037349 24.929099 381.298869 0 325.137776 0 312.849778a52.577094 52.577094 0 0 1 52.700681-52.471164c11.917239 0 90.041364 25.229237 130.966046 42.584269 140.499838 59.568541 1023.470168 389.89676 1023.470168 389.89676" fill="#315CFC" p-id="19080"></path></svg>