<?xml version="1.0" standalone="no"?><!DOCTYPE svg PUBLIC "-//W3C//DTD SVG 1.1//EN" "http://www.w3.org/Graphics/SVG/1.1/DTD/svg11.dtd"><svg t="1690943665633" class="icon" viewBox="0 0 1117 1024" version="1.1" xmlns="http://www.w3.org/2000/svg" p-id="16682" xmlns:xlink="http://www.w3.org/1999/xlink" width="52.359375" height="48"><path d="M506.097694 726.841721L60.360275 295.033597l41.787883-218.225611C139.292943 39.663201 195.010121 39.663201 232.154905 72.164888l468.952909 450.380516c37.144785 37.144785 37.144785 92.861962 4.643098 130.006747l-65.003373 65.003374c-37.144785 41.787883-97.50506 41.787883-134.649845 9.286196z" fill="#7798e9" p-id="16683"></path><path d="M445.737418 513.259208l459.666713-269.29969 176.437728 218.225611-455.023615 273.942788c-41.787883 27.858589-106.791256 18.572392-139.292943-23.21549l-60.360275-74.28957c-37.144785-37.144785-27.858589-97.50506 18.572392-125.363649z" fill="#7798e9" p-id="16684"></path><path d="M199.653219 972.925921l-92.861963 41.787883c-55.717177 23.215491-106.791256 0-106.791256-51.074079V62.878692C0 7.161515 51.074079-16.053976 106.791256 11.804613l92.861963 41.787883C246.0842 72.164888 278.585886 123.238967 278.585886 165.02685v696.464716c0 41.787883-32.501687 92.861962-78.932667 111.434355zM914.690327 239.31642l92.861962-41.787883c55.717177-23.215491 106.791256 0 106.791257 51.074079v524.670086c0 55.717177-51.074079 78.932668-106.791257 51.074079l-92.861962-41.787883c-46.430981-18.572392-78.932668-69.646472-78.932668-111.434354v-325.016868c0-37.144785 32.501687-88.218864 78.932668-106.791256z" fill="#7798e9" p-id="16685"></path></svg>