<?xml version="1.0" standalone="no"?><!DOCTYPE svg PUBLIC "-//W3C//DTD SVG 1.1//EN" "http://www.w3.org/Graphics/SVG/1.1/DTD/svg11.dtd"><svg t="1705047418781" class="icon" viewBox="0 0 1024 1024" version="1.1" xmlns="http://www.w3.org/2000/svg" p-id="7851" xmlns:xlink="http://www.w3.org/1999/xlink" width="48" height="48"><path d="M227.555556 371.541333a284.444444 284.444444 0 1 0 568.888888 0 284.444444 284.444444 0 0 0-568.888888 0z" fill="#FFFFFF" p-id="7852"></path><path d="M170.325333 502.101333C113.208889 374.499556 144.839111 227.669333 250.652444 130.048 356.465778 32.483556 515.640889 3.413333 653.767111 56.32c138.183111 52.906667 228.124444 177.493333 228.010667 315.619556-0.512 208.668444-258.446222 452.380444-368.071111 621.852444-103.651556-159.402667-266.979556-321.422222-343.381334-491.690667zM512 159.402667c-126.862222 0-229.831111 94.890667-229.831111 212.024889-0.113778 117.191111 102.684444 212.195556 229.546667 212.309333 126.919111 0.113778 229.944889-94.663111 230.172444-211.797333 0-56.32-24.177778-110.364444-67.242667-150.186667A240.071111 240.071111 0 0 0 512 159.345778z" fill="#2C56F7" p-id="7853"></path></svg>