<?xml version="1.0" standalone="no"?><!DOCTYPE svg PUBLIC "-//W3C//DTD SVG 1.1//EN" "http://www.w3.org/Graphics/SVG/1.1/DTD/svg11.dtd"><svg t="1683275782089" class="icon" viewBox="0 0 1024 1024" version="1.1" xmlns="http://www.w3.org/2000/svg" p-id="7738" xmlns:xlink="http://www.w3.org/1999/xlink" width="48" height="48"><path d="M858 171.8c-273.2 75.2-379.2-78-642.4-21.6v468.2c268.2-57.4 373.2 102.6 658.2 17 25.6-7.6 35.2-38.4 20.8-61-27.6-43.4-65.4-109.4-71.8-153.6 44.6-78 70.8-152.2 85.4-203.2 8.4-29.6-20.4-54-50.2-45.8z" fill="#FF9400" p-id="7739"></path><path d="M231.6 101.2c11.4 2.6 17.8 13 18.4 24.6 2 39.4 6 148.4 6 386.2s-4 346.6-6 386.2c-0.6 11.8-7 22.2-18.4 24.6-10 2.2-24.8 4.2-46.4 4.2s-36.4-2-46.4-4.2c-11.4-2.6-17.8-13-18.4-24.6-2-39.4-6-148.4-6-386.2s4-346.6 6-386.2c0.6-11.8 7-22.2 18.4-24.6 10-2.2 24.8-4.2 46.4-4.2s36.4 2 46.4 4.2z" fill="#FEC85C" p-id="7740"></path></svg>