<?xml version="1.0" standalone="no"?><!DOCTYPE svg PUBLIC "-//W3C//DTD SVG 1.1//EN" "http://www.w3.org/Graphics/SVG/1.1/DTD/svg11.dtd"><svg t="1704337068658" class="icon" viewBox="0 0 1024 1024" version="1.1" xmlns="http://www.w3.org/2000/svg" p-id="6883" width="48" height="48" xmlns:xlink="http://www.w3.org/1999/xlink"><path d="M419.8 379.42l-1.15 1.98c1.49-0.52 2.94-1.18 4.36-1.98h-3.21zM484 450.51h14.75l-18.03-31.23-11.34 19.64A21.43 21.43 0 0 1 484 450.51zM467.09 442.9l-4.39 7.61h16.34c-2.64-4.05-6.95-6.92-11.95-7.61z" fill="#FFFFFF" p-id="6884"></path><path d="M933.34 881.04H648.37c-14.48 0-26.22-11.74-26.22-26.22V457.95c0-14.48 11.74-26.22 26.22-26.22h7.43c71.97 0 134.38 35.46 171.22 97.28l51.42 86.3c44.83 0.55 81.13 37.2 81.13 82.16v157.35c0 14.48-11.74 26.22-26.23 26.22z" fill="#00A3FF" p-id="6885"></path><path d="M648.37 347.46H90.66c-14.48 0-26.22 11.74-26.22 26.22v481.13c0 14.48 11.74 26.22 26.22 26.22h557.71c14.49 0 26.23-11.74 26.23-26.22V373.68c0-14.48-11.74-26.22-26.23-26.22z" fill="#68EDFF" p-id="6886"></path><path d="M648.37 347.46H369.51v533.58h278.86c14.49 0 26.23-11.74 26.23-26.22V373.68c0-14.48-11.74-26.22-26.23-26.22z" fill="#17CEFF" p-id="6887"></path><path d="M369.51 599.52c-58.33 0-119.8-81.02-143.52-115.85-47.85-70.26-76.42-144.8-76.42-199.39 0-121.28 98.67-219.94 219.94-219.94S589.45 163 589.45 284.27c0 54.59-28.57 129.12-76.41 199.39-23.72 34.84-85.2 115.86-143.53 115.86z" fill="#FFE046" p-id="6888"></path><path d="M369.51 64.33v535.18c58.33 0 119.81-81.02 143.52-115.85 47.85-70.26 76.42-144.8 76.42-199.39 0-121.27-98.66-219.94-219.94-219.94z" fill="#FDBF00" p-id="6889"></path><path d="M369.51 371.09c-47.87 0-86.81-38.94-86.81-86.81s38.94-86.82 86.81-86.82 86.82 38.95 86.82 86.82-38.95 86.81-86.82 86.81z" fill="#E69F34" p-id="6890"></path><path d="M769 614.25h109.42l-51.4-86.27c-25.98-43.59-64.67-74.05-110.46-88.24V561.8c-0.01 28.97 23.48 52.45 52.44 52.45z" fill="#E1F6FD" p-id="6891"></path><path d="M369.51 197.46v173.63c47.87 0 86.82-38.95 86.82-86.82s-38.95-86.81-86.82-86.81z" fill="#BB7C14" p-id="6892"></path><path d="M248.88 933.44c40.92 0 74.31-33.38 74.31-74.31s-33.38-74.3-74.31-74.3-74.31 33.38-74.31 74.3 33.38 74.31 74.31 74.31z" fill="#E1F6FD" p-id="6893"></path><path d="M248.88 959.67c-55.43 0-100.53-45.1-100.53-100.53s45.1-100.53 100.53-100.53 100.53 45.1 100.53 100.53-45.1 100.53-100.53 100.53z m0-148.61c-26.51 0-48.08 21.57-48.08 48.08 0 26.51 21.57 48.08 48.08 48.08s48.08-21.57 48.08-48.08c-0.01-26.51-21.57-48.08-48.08-48.08z" fill="#1751A9" p-id="6894"></path><path d="M792.6 933.44c40.93 0 74.31-33.38 74.31-74.31s-33.38-74.3-74.31-74.3c-40.92 0-74.3 33.38-74.3 74.3s33.38 74.31 74.3 74.31z" fill="#BEEBFA" p-id="6895"></path><path d="M792.6 959.67c-55.43 0-100.52-45.1-100.52-100.53s45.1-100.53 100.52-100.53c55.43 0 100.53 45.1 100.53 100.53s-45.1 100.53-100.53 100.53z m0-148.61c-26.51 0-48.08 21.57-48.08 48.08 0 26.51 21.57 48.08 48.08 48.08 26.52 0 48.08-21.57 48.08-48.08 0-26.51-21.57-48.08-48.08-48.08z" fill="#001A48" p-id="6896"></path></svg>