<?xml version="1.0" standalone="no"?><!DOCTYPE svg PUBLIC "-//W3C//DTD SVG 1.1//EN" "http://www.w3.org/Graphics/SVG/1.1/DTD/svg11.dtd"><svg t="1706581816088" class="icon" viewBox="0 0 1024 1024" version="1.1" xmlns="http://www.w3.org/2000/svg" p-id="19035" xmlns:xlink="http://www.w3.org/1999/xlink" width="48" height="48"><path d="M512 1015.222c-261.848-259.49-392.757-462.437-392.757-608.836C119.243 186.777 295.073 8.778 512 8.778s392.757 178 392.757 397.608c0 146.399-130.909 349.346-392.757 608.836z m0-335.484c149.127 0 270.026-122.385 270.026-273.352 0-150.966-120.9-273.351-270.026-273.351S241.982 255.42 241.982 406.386c0 150.967 120.891 273.352 270.018 273.352z" fill="#D81E06" p-id="19036"></path><path d="M624.704 389.656c-22.824-29.16-45.856-58.08-68.344-87.608l-2.816-2.976c-9.592-9.264-21.296-15.16-33.744-17.008a26.304 26.304 0 0 0-20.328 3.352 151.725 151.725 0 0 0-16.744 13.656l-17.416 15.136c-22.264 18.848-44.656 37.216-66.824 56.712-7.872 6.872-9.512 19.728-3.672 28.92 5.512 9.192 16.136 12.232 24.76 7.064a66.264 66.264 0 0 0 8.544-6.584l44.224-37.216c-8 45.408-16.112 90.088-23.904 135.136a26.992 26.992 0 0 1-5.504 10.912c-15.144 19.616-30.6 38.728-45.536 58.448-7.432 8.232-7.64 21.832-0.472 30.36l0.472 0.544c7.768 8.832 20.304 8.752 28-0.144 0.504-0.592 0.976-1.2 1.424-1.84a4294.56 4294.56 0 0 0 53.304-68 33.352 33.352 0 0 0 5.088-13.288c3.248-17.736 5.952-35.616 8.976-54.352 29.088 33 49.64 74.64 59.36 120.248 0 1.488 0.64 3.096 1.096 4.592 4.528 15.376 14.256 22.344 25.728 18.36 11.464-3.968 14.928-16.112 10.8-32.144-8.728-45.328-27.328-87.384-54.056-122.224a13.616 13.616 0 0 1-2.376-3.856c-0.752-2.096-1.944-4.584-1.52-6.456 5.84-24.824 12.016-49.624 18.616-76.68 15.776 20.104 30.256 38.728 44.856 57.096 9.84 12.408 20.872 13.888 29.856 4.336 8.952-9.568 7.88-22.096-1.848-34.496z m-79.8-109.576c21.08 0.336 38.4-19 38.696-43.168a10.424 10.424 0 0 0 0-1c-0.256-24.544-17.816-44.176-39.192-43.872-21.368 0.304-38.496 20.448-38.208 44.992 0.52 24.048 17.728 43.192 38.704 43.048z" fill="#D81E06" p-id="19037"></path></svg>