<?xml version="1.0" standalone="no"?><!DOCTYPE svg PUBLIC "-//W3C//DTD SVG 1.1//EN" "http://www.w3.org/Graphics/SVG/1.1/DTD/svg11.dtd"><svg t="1705285448464" class="icon" viewBox="0 0 1024 1024" version="1.1" xmlns="http://www.w3.org/2000/svg" p-id="8075" xmlns:xlink="http://www.w3.org/1999/xlink" width="48" height="48"><path d="M235.640471 852.931765c0 66.349176 122.925176 120.124235 274.567529 120.124235s274.567529-53.775059 274.567529-120.124235-122.925176-120.124235-274.567529-120.124236-274.567529 53.790118-274.567529 120.124236z" fill="#F89EEF" p-id="8076"></path><path d="M400.067765 838.866824c0 26.608941 49.302588 48.188235 110.140235 48.188235s110.140235-21.579294 110.140235-48.188235-49.302588-48.188235-110.140235-48.188236-110.140235 21.579294-110.140235 48.188236z" fill="#F89EEF" p-id="8077"></path><path d="M508.491294 837.872941S351.623529 689.347765 265.351529 566.226824a301.402353 301.402353 0 0 1-54.076235-184.094118A300.197647 300.197647 0 0 1 508.491294 82.672941c161.415529 0 293.842824 131.117176 300.42353 299.459765A300.604235 300.604235 0 0 1 753.92 566.211765c-86.482824 124.837647-245.428706 271.661176-245.428706 271.661176z" fill="#783CF9" p-id="8078"></path><path d="M384.346353 381.605647a125.861647 125.861647 0 1 0 125.861647-125.861647 125.861647 125.861647 0 0 0-125.861647 125.861647z" fill="#FFFFFF" p-id="8079"></path></svg>