<?xml version="1.0" standalone="no"?><!DOCTYPE svg PUBLIC "-//W3C//DTD SVG 1.1//EN" "http://www.w3.org/Graphics/SVG/1.1/DTD/svg11.dtd"><svg t="1686885739611" class="icon" viewBox="0 0 1024 1024" version="1.1" xmlns="http://www.w3.org/2000/svg" p-id="12536" xmlns:xlink="http://www.w3.org/1999/xlink" width="48" height="48"><path d="M262.547036 0h498.880328c91.312917 0 124.41289 9.497363 157.768856 27.365716a186.107347 186.107347 0 0 1 77.412465 77.412465C1014.502637 138.134147 1023.974401 171.234119 1023.974401 262.547036v498.880328c0 91.312917-9.497363 124.41289-27.365716 157.768856a186.107347 186.107347 0 0 1-77.412465 77.412465C885.840254 1014.502637 852.740281 1023.974401 761.427364 1023.974401H262.547036c-91.312917 0-124.41289-9.497363-157.768855-27.365716a186.107347 186.107347 0 0 1-77.412465-77.412465C9.471763 885.840254 0 852.740281 0 761.427364V262.547036c0-91.312917 9.497363-124.41289 27.365716-157.768855a186.107347 186.107347 0 0 1 77.412465-77.412465C138.134147 9.471763 171.234119 0 262.547036 0z" fill="#DCF2EB" p-id="12537"></path><path d="M332.561286 256.044799L455.540611 255.9936c28.543286 0 38.885428 2.969526 49.304368 8.550186 10.41894 5.58066 18.610735 13.772456 24.191395 24.191396 5.58066 10.41894 8.550186 20.761081 8.550186 49.304367v117.501062c0 28.543286-2.969526 38.885428-8.550186 49.304368a58.161746 58.161746 0 0 1-24.191395 24.191395c-10.41894 5.58066-20.761081 8.550186-49.304368 8.550186h-117.501062c-28.543286 0-38.885428-2.969526-49.304367-8.550186a58.161746 58.161746 0 0 1-24.191396-24.191395c-5.19667-9.727757-8.140596-19.404315-8.498987-43.826104L255.9936 338.039549c0-28.543286 2.969526-38.885428 8.550186-49.304367 5.58066-10.41894 13.772456-18.610735 24.191396-24.191396 9.727757-5.19667 19.404315-8.140596 43.826104-8.498987zM690.184345 255.9936c23.449014 0 34.635934 2.969526 45.054874 8.550186 10.41894 5.58066 18.610735 13.772456 24.191395 24.191396 5.58066 10.41894 8.550186 21.60586 8.550186 45.054873v125.974451c0 23.474613-2.969526 34.661533-8.550186 45.080473a58.161746 58.161746 0 0 1-24.191395 24.191395c-10.41894 5.58066-21.60586 8.550186-45.054874 8.550186h-23.57701c-23.474613 0-34.661533-2.969526-45.080473-8.550186a58.161746 58.161746 0 0 1-24.191395-24.191395c-5.58066-10.41894-8.550186-21.60586-8.550187-45.054874V333.815655c0-23.474613 2.969526-34.661533 8.550187-45.080473 5.58066-10.41894 13.772456-18.610735 24.191395-24.191396 10.41894-5.58066 21.60586-8.550186 45.054873-8.550186h23.577011zM333.815655 588.78528c-23.474613 0-34.661533 2.969526-45.080473 8.550187a58.161746 58.161746 0 0 0-24.191396 24.191395c-5.58066 10.41894-8.550186 21.60586-8.550186 45.054873v23.577011c0 23.474613 2.969526 34.661533 8.550186 45.080473 5.58066 10.41894 13.772456 18.610735 24.191396 24.191395 10.41894 5.58066 21.60586 8.550186 45.054873 8.550186h23.577011c23.474613 0 34.661533-2.969526 45.080473-8.550186 10.41894-5.58066 18.610735-13.772456 24.191395-24.191395 5.58066-10.41894 8.550186-21.60586 8.550186-45.054874v-23.57701c0-23.474613-2.969526-34.661533-8.550186-45.080473a58.161746 58.161746 0 0 0-24.191395-24.191395c-10.41894-5.58066-21.60586-8.550186-45.054874-8.550187h-23.57701z m230.39424 0c-23.474613 0-34.661533 2.969526-45.080473 8.550187a58.161746 58.161746 0 0 0-24.191395 24.191395c-5.58066 10.41894-8.550186 21.60586-8.550187 45.054873v23.577011c0 23.474613 2.969526 34.661533 8.550187 45.080473 5.58066 10.41894 13.772456 18.610735 24.191395 24.191395 10.41894 5.58066 21.60586 8.550186 45.054873 8.550186h125.974451c23.474613 0 34.661533-2.969526 45.080473-8.550186 10.41894-5.58066 18.610735-13.772456 24.191395-24.191395 5.58066-10.41894 8.550186-21.60586 8.550186-45.054874v-23.57701c0-23.474613-2.969526-34.661533-8.550186-45.080473a58.161746 58.161746 0 0 0-24.191395-24.191395c-10.41894-5.58066-21.60586-8.550186-45.054874-8.550187H564.209895z" fill="#21A389" p-id="12538"></path><path d="M338.039549 286.712832l-8.882978 0.102398c-14.540436 0.358391-20.197895 1.740756-25.932152 4.812679a27.442514 27.442514 0 0 0-11.59651 11.59651c-3.327917 6.271843-4.710282 12.41569-4.889477 30.130447v126.870428l0.230394 8.575786c0.511987 11.366116 1.919952 16.434789 4.659083 21.554661 2.713532 5.068673 6.527837 8.882978 11.59651 11.59651 5.734257 3.071923 11.391715 4.454289 25.932152 4.81268l8.882978 0.102397h117.501062c21.375466 0 28.031299-1.279968 34.81513-4.915077 5.068673-2.713532 8.882978-6.527837 11.59651-11.59651 3.071923-5.734257 4.454289-11.391715 4.81268-25.932152l0.102397-8.882978v-117.501062c0-21.375466-1.279968-28.031299-4.915077-34.81513a27.442514 27.442514 0 0 0-11.59651-11.59651c-6.271843-3.327917-12.41569-4.710282-30.130447-4.889477l-122.185745-0.0256z m356.957476 0.051199l-28.41529-0.051199c-17.074773 0-24.037799 1.433564-30.565635 4.915077a27.442514 27.442514 0 0 0-11.59651 11.59651c-3.148721 5.887853-4.607885 12.082898-4.863879 25.752957l-0.051199 130.812729c0 17.074773 1.433564 24.037799 4.915078 30.565636 2.713532 5.068673 6.527837 8.882978 11.59651 11.59651 5.887853 3.148721 12.082898 4.607885 25.752956 4.863879l4.838279 0.051198h23.551411c17.100372 0 24.063398-1.433564 30.591235-4.915077 5.068673-2.713532 8.882978-6.527837 11.59651-11.59651 3.148721-5.887853 4.607885-12.082898 4.863879-25.752956l0.051198-4.838279v-125.948851c0-17.100372-1.433564-24.063398-4.915077-30.591236a27.442514 27.442514 0 0 0-11.59651-11.59651c-5.887853-3.148721-12.082898-4.607885-25.752956-4.863878z m-366.019649 332.79168l28.415289-0.051199c17.074773 0 24.037799 1.433564 30.565636 4.915078 5.068673 2.713532 8.882978 6.527837 11.59651 11.59651 3.148721 5.887853 4.607885 12.082898 4.863879 25.752956l0.051198 28.415289c0 17.074773-1.433564 24.037799-4.915077 30.565636a27.442514 27.442514 0 0 1-11.59651 11.59651c-5.887853 3.148721-12.082898 4.607885-25.752956 4.863879l-4.838279 0.051198h-23.551411c-17.100372 0-24.063398-1.433564-30.591236-4.915077a27.442514 27.442514 0 0 1-11.59651-11.59651c-3.148721-5.887853-4.607885-12.082898-4.863878-25.752956l-0.051199-28.41529c0-17.074773 1.433564-24.037799 4.915077-30.565635 2.713532-5.068673 6.527837-8.882978 11.59651-11.59651 5.887853-3.148721 12.082898-4.607885 25.752957-4.863879z m230.39424 0l130.812729-0.051199c17.074773 0 24.037799 1.433564 30.565636 4.915078 5.068673 2.713532 8.882978 6.527837 11.59651 11.59651 3.148721 5.887853 4.607885 12.082898 4.863879 25.752956l0.051198 28.415289c0 17.074773-1.433564 24.037799-4.915077 30.565636a27.442514 27.442514 0 0 1-11.59651 11.59651c-5.887853 3.148721-12.082898 4.607885-25.752956 4.863879l-4.838279 0.051198h-125.948851c-17.100372 0-24.063398-1.433564-30.591235-4.915077a27.442514 27.442514 0 0 1-11.596511-11.59651c-3.148721-5.887853-4.607885-12.082898-4.863878-25.752956l-0.051199-28.41529c0-17.074773 1.433564-24.037799 4.915077-30.565635 2.713532-5.068673 6.527837-8.882978 11.596511-11.59651 5.887853-3.148721 12.082898-4.607885 25.752956-4.863879z" fill="#C5EBDE" p-id="12539"></path></svg>