<?xml version="1.0" standalone="no"?><!DOCTYPE svg PUBLIC "-//W3C//DTD SVG 1.1//EN" "http://www.w3.org/Graphics/SVG/1.1/DTD/svg11.dtd"><svg t="1721198182755" class="icon" viewBox="0 0 1024 1024" version="1.1" xmlns="http://www.w3.org/2000/svg" p-id="25569" xmlns:xlink="http://www.w3.org/1999/xlink" width="200" height="200"><path d="M915.886578 78.892596h-53.755221v2.047818c-16.382544 4.095636-27.645542 18.430362-27.645543 35.32486v5.631499c0.511954 16.894498 11.774953 31.229224 27.645543 35.32486v0.511954h2.559772c2.559772 1.023909 5.631499 1.535863 8.191272 1.535864h31.741178c3.071727 0 5.631499-1.023909 8.191272-1.535864h3.071727c22.014043 0 37.884632 6.655408 37.884632 28.669451v162.801527H69.62581V186.403038c0-22.014043 15.870589-28.669451 37.884632-28.669451h3.071727c2.559772 1.023909 5.631499 1.535863 8.191272 1.535864h31.741178c3.071727 0 5.631499-1.023909 8.191272-1.535864h2.559772v-0.511954c16.382544-4.095636 27.645542-18.430362 27.645543-35.32486v-5.631499c-0.511954-16.894498-11.774953-31.229224-27.645543-35.32486v-2.047818H80.888809C29.181406 86.059959 0 117.289183 0 175.651994V926.689227c1.535863 55.291085 47.611767 98.807216 102.902852 97.271353h822.710861c55.291085-1.023909 99.319171-47.099813 98.295261-102.390898V175.651994c0-58.362812-49.147631-96.759398-108.022396-96.759398z m37.884632 828.854315c-3.071727 24.061861-22.014043 43.516131-46.587859 46.587858H116.213669c-24.061861-3.071727-43.516131-22.014043-46.587859-46.587858V418.830376h884.1454v488.916535z" fill="" p-id="25570"></path><path d="M721.855827 204.8334c-18.942316 1.023909-35.836814-13.310817-36.860723-32.253133V36.912328c0-20.478179 16.382544-36.860723 36.860723-36.860723s36.860723 16.382544 36.860723 36.860723v131.572303c1.023909 18.942316-13.310817 35.32486-32.765087 36.348769h-4.095636zM582.092252 139.303226H449.49604c-16.382544-2.559772-30.205315-13.822771-36.860723-29.181406-2.559772-19.966225 10.23909-38.908541 29.69336-44.028086h139.763575c18.942316-1.023909 35.836814 13.310817 36.860723 32.253133v4.095635c1.023909 18.942316-13.310817 35.32486-32.765087 36.348769-1.535863 0.511954-3.071727 0.511954-4.095636 0.511955zM324.06719 197.666037c-11.262999 7.167363-25.597724 7.167363-36.860723 0-9.215181-7.167363-14.334726-17.918407-14.84668-29.181406V29.233011C276.967378 12.338513 291.814058 0.563559 309.22051 0.051605c18.942316-1.023909 35.836814 13.310817 36.860723 32.253133v135.667939c0 13.822771-8.703226 26.109679-22.014043 29.69336zM303.589011 586.239493c2.559772-1.535863 8.703226-4.095636 17.918407-7.679317 48.635676-22.014043 93.687671-51.707403 135.667939-88.568127 2.559772-1.535863 5.119545-3.071727 7.679317-6.143454 26.109679-25.08577 47.099813-32.765087 62.970402-23.549906 4.095636 2.559772 15.870589 11.262999 35.32486 25.597724 56.314994 44.54004 108.022397 77.817082 155.12221 100.34308 18.430362 11.774953 23.549906 25.597724 15.870589 41.468313-7.679317 20.990134-29.69336 21.502088-65.01822 2.047818-46.075904-22.014043-93.687671-55.803039-143.347257-100.343079-9.215181-7.679317-19.454271-6.143454-31.229223 6.143454-51.195449 44.54004-104.438715 77.817082-159.217846 100.343079-22.525997 9.215181-37.884632 7.167363-47.099813-6.143454-9.727135-17.406453-4.60759-31.741178 15.358635-43.516131z m29.181406 160.753709c-16.894498 0-26.109679-8.703226-27.645543-25.597724 1.535863-16.894498 10.23909-26.109679 27.645543-27.645543h326.115008c36.860723 0 53.755221 13.822771 51.195449 41.468314-39.420496 112.629987-149.49071 173.040617-330.210644 180.719934-23.549906-1.535863-35.32486-11.262999-35.32486-29.693361 2.559772-14.334726 16.382544-23.037952 41.468313-25.597724 119.285396-5.119545 201.198113-37.372678 245.738154-96.247444 6.655408-10.23909 6.143454-16.382544-2.047818-17.918407H332.770417z m186.863388-74.745355c-6.655408-6.655408-16.382544-18.430362-29.693361-35.32486-9.215181-13.310817-14.84668-21.502088-17.918407-25.597724-11.774953-13.310817-9.727135-25.597724 6.143454-37.372678 15.870589-9.215181 30.717269-7.679317 45.051995 4.095636 20.990134 25.08577 37.372678 47.611767 49.147631 68.601901 4.095636 16.894498-1.535863 29.69336-15.870589 37.372678-14.84668 6.655408-27.645542 3.071727-36.860723-11.774953z" fill="" p-id="25571"></path></svg>