<?xml version="1.0" standalone="no"?><!DOCTYPE svg PUBLIC "-//W3C//DTD SVG 1.1//EN" "http://www.w3.org/Graphics/SVG/1.1/DTD/svg11.dtd"><svg t="1705302850309" class="icon" viewBox="0 0 1024 1024" version="1.1" xmlns="http://www.w3.org/2000/svg" p-id="1202" xmlns:xlink="http://www.w3.org/1999/xlink" width="48" height="48"><path d="M319.66695552 636.45079349l-101.82337649 101.82337649a32 32 0 0 1-45.254834 0L93.39278554 659.07821049a32 32 0 0 1 0-45.254834l45.25483399-45.254834c91.41476467-91.41476467 243.92355524 4.97803174 181.01933599 67.882251z m147.07821048 237.58787848l-45.25483399 45.25483399c-23.75878785 23.75878785-44.12346315 23.75878785-56.5685425 11.3137085L285.72583002 851.41125497a32 32 0 0 1 0-45.254834c106.68827115-106.68827115 109.06414993-115.85237503 135.76450199-115.85237503C481.22671288 690.30404594 525.46331311 815.32052486 466.745166 874.03867197z" fill="#FFE5C0" p-id="1203"></path><path d="M308.35324702 783.52900398l124.45079349 124.45079348-45.254834 45.254834L263.09841302 828.78383797z m-192.33304448-192.33304449l124.45079348 124.45079349-45.25483399 45.254834L70.76536854 636.45079349z" fill="#68539B" p-id="1204"></path><path d="M778.66410932 188.76734818A238.88 238.88 0 0 1 722.43497808 437.32952391a423.36 423.36 0 0 0-121.73550345 343.03164169C614.38906192 916.46507884 608.05338516 913.7497888 523.3137085 998.48946546l56.56854249 56.56854249c45.254834-45.254834 91.75417593-80.89301577 83.7214429-155.45035477-8.14587012-78.51713698-19.5727157-148.32271842 15.72605481-247.88335322A424.64 424.64 0 0 1 779.00352058 493.8980664 240 240 0 0 0 817.47012947 206.52987053a238.88 238.88 0 0 0-38.80602015-17.76252235z" fill="#FFE5C0" p-id="1205"></path><path d="M-31.05800795 444.11774901l147.07821049 147.07821048 33.94112549-33.94112549c73.0865569-73.0865569 235.66454803 13.23703894 169.70562749 79.19595949a240 240 0 0 1 135.08567948-68.56107351A237.92 237.92 0 0 1 387.54920651 704.33304448c63.24363051-63.24363051 159.0707415 89.83084548 67.882251 181.01933599l-22.627417 22.62741699 90.50966799 90.509668c45.254834-45.254834 91.75417593-80.89301577 83.72144289-155.45035478-8.14587012-78.51713698-19.5727157-148.32271842 15.72605482-247.88335321A424.64 424.64 0 0 1 722.43497808 437.32952391 238.88 238.88 0 0 0 778.66410932 188.76734818 240 240 0 0 0 530.1019336 244.99647942a423.04 423.04 0 0 1-343.03164169 121.73550345C50.96637867 353.04239559 53.68166871 359.37807235-31.05800795 444.11774901z" fill="#FEF5E3" p-id="1206"></path><path d="M14.19682604 398.86291501l147.07821049 147.07821049-45.25483399 45.25483399L-31.05800795 444.11774901z m463.86204846 463.86204846l147.07821049 147.07821049-45.254834 45.25483399L432.80404051 907.97979746z" fill="#68539B" p-id="1207"></path><path d="M389.01998862 702.86226238L274.41212152 817.47012947a48 48 0 0 1-67.88225099-67.88225099c108.72473868-108.72473868 149.56722636-167.21661161 249.58040949-180.34051348A236.96 236.96 0 0 1 389.01998862 702.86226238z" fill="#898EC9" p-id="1208"></path><path d="M715.64675298 466.745166c-1.13137085 1.13137085 4.29920923 4.29920923-158.39191898-158.39191898a105.28 105.28 0 0 1 63.01735634-30.20760169C657.94683964 273.28075067 683.0632725 290.25131342 715.64675298 308.35324702c23.53251368 42.31326979 17.98879651 33.60171424 19.12016737 34.73308509A105.76 105.76 0 0 1 715.64675298 466.745166z" fill="#2DE0C7" p-id="1209"></path><path d="M626.72100418 377.8194172l-26.13466663-26.13466663 19.68585279-73.53910524a96 96 0 0 1 33.26230298 1.81019336z m78.29086281 78.29086282l-52.26933326-52.26933327 30.43387586-113.47649625c1.13137085 1.13137085 17.64938526 9.95606348 32.92289173 18.44134486 17.53624817 31.56524671 18.44134485 32.92289173 19.00703028 34.61994801s0.56568542-1.24450793-30.09446461 112.68453665z" fill="#93E6D9" p-id="1210"></path><path d="M846.20694906 289.57249091a96 96 0 0 1-111.77943997-111.77943997A234.4 234.4 0 0 1 817.47012947 206.52987053a232.96 232.96 0 0 1 28.73681959 83.04262038z" fill="#68539B" p-id="1211"></path><path d="M259.93057464 351.79788765A407.04 407.04 0 0 0 518.7882251 233.68277092a256 256 0 0 1 225.25593621-70.48440394A16 16 0 0 1 737.3690733 194.31106535 224 224 0 0 0 541.4156421 256.31018792a437.92 437.92 0 0 1-279.6748741 127.61863187 16 16 0 0 1-1.81019336-32.13093214zM104.70649404 602.50966799L-42.37171645 455.43145751a16 16 0 0 1 0-22.627417c48.42267238-48.42267238 86.21045876-97.07161892 168.46111955-88.36006338C196.68694413 352.13729891 192.95342033 351.34533931 197.59204081 351.23220223A16 16 0 0 1 196.46066996 383.1368602c-5.65685425-0.22627417 0.67882251 0.67882251-74.557339-6.67508802C56.51009583 369.22099874 23.92661535 411.7605427-8.43059095 444.11774901l124.45079349 124.45079348 11.31370849-11.31370849c81.00615285-81.00615285 211.56634893-30.54701295 221.6355495 35.18563343a256 256 0 0 1 105.10435196-39.03229432 16 16 0 0 1 17.76252234 19.79898987 253.76 253.76 0 0 1-39.71111683 101.93651358 89.44 89.44 0 0 1 57.81305043 48.30953529 16 16 0 0 1-25.22956996 20.02526404c-4.5254834-4.5254834-17.87565943-36.88268971-43.55777772-36.76955262A32 32 0 0 0 398.86291501 715.64675298a16 16 0 0 1-22.627417 0c-22.627417-22.627417 35.86445594-33.60171424 59.05755837-126.93980936A226.56 226.56 0 0 0 330.98066402 647.76450199a16 16 0 0 1-22.627417-22.627417c46.38620485-46.38620485-82.36379787-121.28295511-158.39191899-45.254834l-22.627417 22.627417a16 16 0 0 1-22.62741699 0z m463.86204845 463.86204846L421.49033201 919.29350596c-27.83172291-27.83172291 61.32030006-40.95562477 56.79481666-126.03471268a16 16 0 0 1 31.90465797-1.58391919C513.58391919 855.7104642 481.90553539 881.50571958 455.43145751 907.97979746l124.45079348 124.45079349c70.25812978-70.25812978 74.21792775-67.88225099 61.54657424-193.91696367A436.64 436.64 0 0 1 767.68981208 482.5843579 224 224 0 0 0 806.15642097 217.84357903c-3.7335238-2.14960461-7.69332178-4.07293506-11.53998267-5.88312842a16 16 0 0 1 13.5764502-28.96309376A56.48 56.48 0 0 1 831.72540218 198.15772624 256 256 0 0 1 790.31722908 505.2117749a405.28 405.28 0 0 0-117.09688297 330.02087692l6.22253967 62.79108217C688.26757841 982.42399939 633.96177762 1023.60589832 591.19595949 1066.37171645a16 16 0 0 1-22.627417 0z" fill="#35214C" p-id="1212"></path><path d="M297.03953852 455.43145751L523.3137085 229.15728753a16 16 0 0 1 22.627417 22.62741699l-226.27416998 226.27416998a16 16 0 0 1-22.627417-22.62741699z m248.90158698 248.90158697L772.21529548 478.0588745a16 16 0 0 1 22.62741699 22.627417l-226.27416998 226.27416998a16 16 0 0 1-22.62741699-22.627417zM161.27503653 749.58787848l-33.9411255-33.9411255a16 16 0 0 1 22.627417-22.627417l33.9411255 33.9411255a16 16 0 0 0 22.627417 0L308.35324702 625.13708499c44.34973732-44.34973732-80.77987868-122.8668743-158.39191899-45.254834l-45.25483399 45.254834a16 16 0 0 0 0 22.627417 16 16 0 0 1 0 22.627417c-21.60918323 21.60918323-56.56854249-33.9411255-22.627417-67.882251l45.25483399-45.25483399c105.44376321-105.44376321 283.63467207 10.5217489 203.64675299 90.50966799l-101.82337649 101.82337649a48 48 0 0 1-67.882251 0z m192.33304448 192.33304448L274.41212152 862.72496347a48 48 0 0 1 0-67.882251c104.08611819-104.08611819 111.66630288-120.49099551 147.07821049-120.60413259 31.22583546 0 52.72188161 21.49604615 68.44793642 49.21463197a16 16 0 1 1-27.60544874 16.06546606c-9.16410388-16.17860315-22.28800574-33.1491659-40.84248768-33.1491659S407.57447055 706.93519744 297.03953852 817.47012947a16 16 0 0 0 0 22.627417l79.19595949 79.19595949c15.38664356 15.38664356 45.254834-22.627417 79.1959595-56.56854249a92.16 92.16 0 0 0 22.85369116-69.46617019 16 16 0 0 1 31.90465797-1.58391919C513.92333044 861.7067297 476.92750365 886.48375132 432.80404051 930.60721446c-33.9411255 33.9411255-62.79108217 27.71858582-79.1959595 11.3137085z" fill="#35214C" p-id="1213"></path><path d="M195.21616203 828.78383797a64 64 0 0 1 0-90.50966799c106.00944864-106.00944864 152.05624223-170.61072416 258.85765046-184.86599687a16 16 0 0 1 17.76252234 19.79898987A256 256 0 0 1 400.33369712 714.17597088L285.72583002 828.78383797a64 64 0 0 1-90.50966799 0z m240.07689435-240.07689435c-79.42223366 19.23330445-108.72473868 63.46990468-217.44947735 172.19464336a32 32 0 0 0 45.25483399 45.25483399c118.22825381-118.22825381 152.96133891-141.19508207 172.76032878-216.88379192zM704.33304448 478.0588745L613.82337649 387.54920651a16 16 0 0 1 22.627417-22.627417l78.17772573 78.17772573a90.72 90.72 0 0 0 4.75175757-95.26142556L704.33304448 319.66695552c-29.75505335-16.63115149-49.44090614-31.33897254-84.51340248-26.36094081A88.32 88.32 0 0 0 580.90048476 309.37148078L591.19595949 319.66695552a16 16 0 0 1-22.627417 22.627417l-22.62741699-22.627417a16 16 0 0 1 0-22.627417 121.92 121.92 0 0 1 145.49429129-20.3646753c44.68914857 25.00329578 31.90465797 12.21880518 56.00285707 56.00285707A122.72 122.72 0 0 1 726.96046148 478.0588745a16 16 0 0 1-22.627417 0zM718.36204302 175.30403507a16 16 0 0 1 18.21507068-13.01076477l7.12763636 1.24450793a16 16 0 0 1 4.86489465 29.30250501 80 80 0 0 0 78.4039999 82.70320913A219.52 219.52 0 0 0 806.15642097 217.84357903c-3.7335238-2.14960461-7.69332178-4.07293506-11.53998267-5.88312842a16 16 0 0 1 13.5764502-28.96309376A56.48 56.48 0 0 1 831.72540218 198.15772624a249.92 249.92 0 0 1 30.32073878 89.15202297 16 16 0 0 1-13.35017603 18.32820777 112 112 0 0 1-130.33392191-130.33392191zM568.56854249 975.86204846L466.745166 874.03867197a16 16 0 0 1 22.627417-22.627417l101.82337649 101.82337649a16 16 0 0 1-22.627417 22.627417z m-418.60721446-418.60721446L48.13795154 455.43145751a16 16 0 0 1 22.627417-22.627417l101.82337649 101.82337649a16 16 0 0 1-22.627417 22.627417z" fill="#35214C" p-id="1214"></path><path d="M229.15728753 726.96046148L149.96132803 647.76450199a16 16 0 0 1 22.627417-22.627417l79.19595949 79.19595949a16 16 0 0 1-22.62741699 22.627417z m158.39191898 158.39191899L308.35324702 806.15642097a16 16 0 0 1 22.627417-22.62741699l79.19595949 79.19595949a16 16 0 0 1-22.627417 22.627417z" fill="#35214C" p-id="1215"></path></svg>