<svg xml:space="preserve" style="enable-background:new 0 0 1024 1024;" viewBox="0 0 1024 1024" y="0px" x="0px" xmlns:xlink="http://www.w3.org/1999/xlink" xmlns="http://www.w3.org/2000/svg" id="图层_1" version="1.1">
<style type="text/css">
	.st0{fill:#C5D7F9;}
	.st1{fill:#F0F8FF;}
	.st2{fill:#D6E6F2;}
	.st3{fill:#B3D0FF;}
	.st4{fill:#4C6EF4;}
	.st5{fill:#94B8ED;}
	.st6{fill:#FFFFFF;}
	.st7{fill:#439E7B;}
	.st8{fill:#FEB801;}
	.st9{fill:#FF9E85;}
	.st10{opacity:0.22;}
	.st11{fill:#0C0C0C;}
	.st12{fill:#0A0A0A;}
	.st13{fill:#367CFF;}
	.st14{opacity:0.25;}
	.st15{opacity:0.2;}
	.st16{fill:#203C79;}
	.st17{fill-rule:evenodd;clip-rule:evenodd;fill:#FFB830;}
	.st18{fill-rule:evenodd;clip-rule:evenodd;fill:#3AA283;}
	.st19{fill-rule:evenodd;clip-rule:evenodd;fill:#47DAAE;}
	.st20{fill-rule:evenodd;clip-rule:evenodd;fill:#DDDDDD;}
	.st21{fill-rule:evenodd;clip-rule:evenodd;fill:#E86E6E;}
	.st22{fill-rule:evenodd;clip-rule:evenodd;fill:#9C9C9C;}
	.st23{fill:#FAFAFA;}
	.st24{fill-rule:evenodd;clip-rule:evenodd;fill:#D3D3D3;}
	.st25{fill-rule:evenodd;clip-rule:evenodd;fill:#FFDD30;}
	.st26{fill:#DDDDDD;}
	.st27{fill-rule:evenodd;clip-rule:evenodd;fill:#588CBE;}
	.st28{fill-rule:evenodd;clip-rule:evenodd;fill:#FFFFFF;}
	.st29{opacity:0.1;}
	.st30{fill-rule:evenodd;clip-rule:evenodd;}
	.st31{fill-rule:evenodd;clip-rule:evenodd;fill:#636363;}
	.st32{clip-path:url(#SVGID_00000009584934512669536400000006080379652145284783_);}
	.st33{fill:#E6E6E6;}
	.st34{fill-rule:evenodd;clip-rule:evenodd;fill:#BFBFBF;}
</style>
<g id="_8">
	<path d="M126.8,504.2c-0.8-4.4-1.6-8.8-2.2-13.1l4.2-0.1c0.7,4.3,1.4,8.7,2.2,13L126.8,504.2z M864.1,617.9l-4.1-1
		c1.2-4.2,2.4-8.4,3.5-12.5l4.2,0.9C866.5,609.5,865.3,613.7,864.1,617.9z M122.7,477.9c-0.5-4.4-1-8.8-1.4-13.1l4.2,0.1
		c0.4,4.3,0.8,8.7,1.4,13.1L122.7,477.9z M871,592.7l-4.2-0.9c1-4.2,2.1-8.4,3-12.6l4.2,0.8C873,584.3,872,588.5,871,592.7z
		 M120.4,451.6c-0.2-4.4-0.4-8.8-0.5-13.1l4.2,0.2c0.1,4.3,0.3,8.7,0.5,13L120.4,451.6z M876.7,567.4l-4.2-0.8
		c0.9-4.2,1.7-8.5,2.4-12.7l4.2,0.7C878.4,558.8,877.6,563.1,876.7,567.4z M119.8,425.4c0.1-4.4,0.2-8.8,0.4-13.1l4.2,0.4
		c-0.2,4.2-0.4,8.6-0.4,13L119.8,425.4z M877,541.1c0.6-4.3,1.2-8.6,1.8-12.8l4.2,0.6c-0.5,4.2-1.1,8.6-1.8,12.9L877,541.1z
		 M121.2,399.4c0.4-4.4,0.9-8.7,1.5-12.9l4.2,0.6c-0.6,4.2-1.1,8.5-1.5,12.8L121.2,399.4z M880.2,515.4c0.4-4.3,0.7-8.7,1-12.9
		l4.2,0.5c-0.3,4.3-0.6,8.6-1,13L880.2,515.4z M129.2,374.3l-4.2-0.8c0.8-4.3,1.8-8.6,2.8-12.7l4.2,0.9
		C130.8,365.8,129.9,370.1,129.2,374.3L129.2,374.3z M881.8,489.6c0.1-4.4,0.2-8.7,0.2-13l4.2,0.3c0,4.3,0,8.7-0.2,13.1L881.8,489.6
		z M135.2,349.2l-4.1-1c1.3-4.2,2.7-8.4,4.1-12.4l4.1,1.1C137.9,340.9,136.5,345.1,135.2,349.2z M881.6,463.6
		c-0.2-4.4-0.5-8.8-0.8-13l4.2,0.1c0.4,4.3,0.6,8.7,0.8,13.1L881.6,463.6z M383.1,382c-5.8-1.6-9.7-4.4-15-8.8l3.1-2
		c4.6,3.9,8.1,6.3,12.9,7.7L383.1,382z M399,376.9l-3.5-2.1c2.9-3.3,5.2-7,7-10.9l4,1.4C404.6,369.5,402.1,373.4,399,376.9z
		 M357.3,362.1c-2.9-3.4-6-7.2-9.4-11.7l3.6-1.4c3.4,4.5,6.4,8.2,9.2,11.5L357.3,362.1z M144.3,324.8l-4-1.3c1.8-4.1,3.7-8.1,5.7-12
		l4,1.4C147.9,316.8,146,320.8,144.3,324.8L144.3,324.8z M879.4,437.5c-0.6-4.4-1.2-8.8-2-13l4.2-0.1c0.8,4.3,1.4,8.7,2,13.1H879.4z
		 M411.3,352.9l-4.1-1.1c1.3-3.7,2.5-7.8,3.8-12.4l4.1,1C413.9,345.1,412.6,349.2,411.3,352.9z M339.2,338.5c-2.9-4-5.8-8.3-8.4-12
		l3.7-1.3c2.5,3.7,5.5,7.9,8.3,12L339.2,338.5z M647.9,388.4c-3.3-0.6-6.5-1.8-9.2-3.8l2.7-2.3c4.1,2.8,9.2,3.8,14,2.7l1.3,3.2
		C653.8,388.8,650.8,388.9,647.9,388.4z M156.3,301.4l-3.9-1.6c2.4-3.9,4.9-7.7,7.4-11.3l3.8,1.8
		C161.1,293.9,158.6,297.7,156.3,301.4L156.3,301.4z M671.8,382.1l-2.8-2.7c4.2-2.5,8.2-5.2,12.1-8.1l3.1,2.4
		C680.3,376.8,676.2,379.6,671.8,382.1L671.8,382.1z M628.3,372.8c-2.4-4.1-4.6-8.4-6.4-12.8l4-0.7c1.8,4.3,3.8,8.4,6.2,12.4
		L628.3,372.8z M874.8,411.5c-1-4.4-2.2-8.8-3.4-12.9l4.1-0.5c1.3,4.2,2.4,8.6,3.5,13.1L874.8,411.5z M322.5,314.5
		c-3.2-4.6-5.9-8.4-8.4-11.9l3.7-1.4c2.6,3.5,5.3,7.3,8.5,12L322.5,314.5z M418.5,327.6l-4.2-0.9c0.9-3.7,1.9-7.8,3.1-12.6l4.2,0.9
		C420.5,319.9,419.5,324,418.5,327.6L418.5,327.6z M171.9,279.6l-3.6-1.9c3-3.6,6.1-7.1,9.3-10.4l3.5,2.1
		C177.9,272.6,174.8,276,171.9,279.6z M695.7,364.7l-3.2-2.3c3.6-2.9,7.2-6.1,11-9.2l3.3,2.3C702.9,358.6,699.2,361.8,695.7,364.7
		L695.7,364.7z M617.1,347.1c-1.3-3.9-2.7-8.2-4.1-13l4.2-0.4c1.4,4.8,2.7,9,4,12.9L617.1,347.1z M867.1,385.7
		c-1.6-4.4-3.4-8.6-5.3-12.7l4-0.8c1.9,4.1,3.7,8.4,5.3,12.9L867.1,385.7z M305.3,290.8c-3.2-4.2-6.3-8-9.3-11.5l3.5-1.6
		c3,3.6,6.1,7.4,9.4,11.6L305.3,290.8z M424.6,302.4l-4.2-0.9c1-4.2,2-8.4,3-12.7l4.2,0.9C426.6,294,425.6,298.2,424.6,302.4
		L424.6,302.4z M717.6,346.2l-3.2-2.3c4.2-3.5,7.9-6.4,11.4-9.1l3.1,2.4C725.5,339.9,721.8,342.8,717.6,346.2L717.6,346.2z
		 M191.2,259.7l-3.3-2.3c3.7-3.2,7.7-6.2,11.9-8.9l2.9,2.6C198.7,253.7,194.8,256.6,191.2,259.7z M609.3,321.1
		c-1.2-4.6-2.4-9.2-3.5-13l4.2-0.4c1,3.9,2.2,8.5,3.5,13L609.3,321.1z M285.9,268.2c-3.6-3.6-7.3-7.1-11.2-10.4l3-2.1
		c4,3.3,7.9,6.9,11.6,10.7L285.9,268.2z M855.4,360.7c-2.4-4.1-4.9-8.1-7.7-12l3.7-1.4c2.9,3.9,5.5,8,7.9,12.3L855.4,360.7z
		 M215.9,244.4l-2.1-2.9c5.3-2,10.9-3.3,16.6-3.7l0.7,3.2C225.9,241.4,220.8,242.5,215.9,244.4z M740.8,328.7l-3-2.5
		c4.2-2.8,8.5-5.4,13-7.8l2.6,2.7C749,323.4,744.8,326,740.8,328.7z M430.6,277l-4.2-0.9c1.1-4.6,2.2-8.7,3.2-12.6l4.2,0.9
		C432.8,268.4,431.7,272.5,430.6,277z M261.9,248.9c-4.6-2.7-9.6-4.8-14.8-6.2l1.1-3.1c5.6,1.6,11,3.8,16,6.8L261.9,248.9z
		 M838.4,337.4c-3.4-3.7-7.2-7.1-11.2-10.3l2.9-2.2c4.1,3.3,8,6.8,11.6,10.7L838.4,337.4z M602.5,295c-1.3-5.1-2.4-9.2-3.5-13
		l4.2-0.4c1,3.8,2.1,8,3.5,13L602.5,295z M767.4,315.1l-2-3c5.4-1.8,10.9-3,16.5-3.5l0.8,3.2C777.5,312.3,772.3,313.4,767.4,315.1
		L767.4,315.1z M814,318.6c-4.8-2.5-9.9-4.4-15.2-5.6l0.9-3.1c5.7,1.4,11.2,3.4,16.4,6.1L814,318.6z M437.2,251.9l-4.1-1
		c1.2-4.4,2.5-8.6,3.8-12.5l4.1,1C439.7,243.3,438.5,247.5,437.2,251.9z M595.4,268.9c-1.3-4.6-2.6-8.9-3.9-12.9l4.1-0.5
		c1.3,4.1,2.6,8.4,3.9,13L595.4,268.9z M445.2,227.1l-4.1-1.1c1.6-4.3,3.2-8.4,4.9-12.3l4,1.3C448.4,218.7,446.7,222.8,445.2,227.1
		L445.2,227.1z M587.1,243.1c-1.6-4.5-3.2-8.8-4.9-12.8l4-0.7c1.7,4.1,3.3,8.4,4.9,12.9L587.1,243.1z M455.6,203.1l-4-1.4
		c2.1-4,4.4-7.9,6.9-11.6l3.8,1.7C459.8,195.4,457.6,199.2,455.6,203.1z M576.6,217.7c-2.1-4.4-4.4-8.6-6.6-12.4l3.8-1.1
		c2.3,3.9,4.6,8.1,6.8,12.6L576.6,217.7z M470.5,181.1L467,179c3.3-3.6,6.9-6.8,10.9-9.6l3,2.5C477.1,174.5,473.6,177.6,470.5,181.1
		z M562,193.4c-3-3.9-6.3-7.6-9.8-11l3.2-1.9c3.7,3.5,7.1,7.4,10.2,11.4L562,193.4z M494,165.6l-1.8-3c5.6-1.6,11.3-2.3,17.1-2
		l0.1,3.2C504.2,163.5,499,164.1,494,165.6z M540,173.1c-4.6-2.8-9.4-5-14.5-6.5l1.2-3c5.5,1.7,10.8,4.1,15.8,7.1L540,173.1z" class="st0"></path>
</g>
<path d="M778.2,885.4c0,0,84-147.9,20.4-184.1c-47.5-27-86.2,19-86.2,19s65.1-180.2-8.1-209.5s-79.1,80.6-79.1,80.6
	s8.3-224.6-139.2-205.5c-110.7,14.3-88,138.7-88,138.7s-91.3-33.9-149.3,36.5c-68.2,82.8,26.2,178,26.2,178s-89.6-57.7-142.7-18.9
	C72.4,764,82.3,824,129.3,893.7L778.2,885.4z" class="st1"></path>
<path d="M864,897.2c0,12.2-174.6,22-390,22s-390-9.8-390-22s174.6-22,390-22S864,885.1,864,897.2z" class="st2"></path>
<path d="M674.3,880.1c0,7.4-6,13.3-13.3,13.3H244.6c-7.4,0-13.3-6-13.3-13.3l0,0V527c0-7.4,5.9-13.3,13.3-13.3l0,0H661
	c7.4,0,13.3,6,13.3,13.3V880.1z" class="st3"></path>
<path d="M661,513.7H244.6c-7.3,0-13.3,6-13.3,13.3v56.7h443V527C674.3,519.7,668.3,513.7,661,513.7z" class="st4"></path>
<path d="M294.6,550.4c0,7.4-6,13.3-13.3,13.3h-1.7c-7.4,0-13.3-6-13.3-13.3v-50c0-7.4,6-13.3,13.3-13.3h1.7
	c7.4,0,13.3,6,13.3,13.3V550.4z" class="st5"></path>
<path d="M634.3,550.4c0,7.4-6,13.3-13.3,13.3h-1.7c-7.4,0-13.3-6-13.3-13.3l0,0v-50c0-7.4,6-13.3,13.3-13.3h1.7
	c7.4,0,13.3,6,13.3,13.3V550.4z" class="st5"></path>
<path d="M321.8,804.8v-23.9l21.8-19.7c36.9-32.9,54.8-51.9,55.3-71.6c0-13.8-8.3-24.6-27.8-24.6
	c-14.5,0-27.2,7.3-36.1,14l-11.1-28.3c12.7-9.6,32.4-17.4,55.2-17.4c38.2,0,59.2,22.3,59.2,52.9c0,28.3-20.5,50.9-44.9,72.7
	l-15.6,13v0.5h63.6v32.5L321.8,804.8z" class="st6"></path>
<path d="M472.8,766.1c7,3.6,23.1,10.4,39.2,10.4c20.5,0,30.9-9.8,30.9-22.6c0-16.6-16.6-24.1-34-24.1h-16.1v-28.3h15.3
	c13.2-0.2,30.1-5.2,30.1-19.5c0-10.1-8.3-17.7-24.9-17.7c-13.8,0-28.3,6-35.3,10.1l-8-28.5c10.1-6.5,30.4-12.7,52.2-12.7
	c36.1,0,56,19,56,42c0,17.9-10.1,31.9-30.9,39.2v0.5c20.2,3.6,36.6,18.9,36.6,41c0,29.8-26.2,51.6-69,51.6
	c-21.8,0-40.2-5.7-50.1-11.9L472.8,766.1z" class="st6"></path>
<circle r="59.1" cy="656.9" cx="657.2" class="st7"></circle>
<polygon points="632.7,653.9 651.1,684 695.5,616.7 653.4,661.5" class="st6"></polygon>
<path d="M494,458.2H284.5c-0.6,0-1.1-0.5-1.1-1.1v-82.7c0-0.6,0.5-1.1,1.1-1.1H494c0.6,0,1.1,0.5,1.1,1.1v82.7
	C495.1,457.7,494.6,458.2,494,458.2z" class="st8"></path>
<polygon points="426,454.2 426,480.9 385.5,454.2" class="st8"></polygon>
<rect height="4.5" width="183.4" class="st1" y="391" x="297.6"></rect>
<rect height="4.5" width="183.4" class="st1" y="409.8" x="297.6"></rect>
<rect height="4.5" width="183.4" class="st1" y="430.6" x="297.6"></rect>
<g id="sk">
	<path d="M228.4,761c-0.1,0-1.6,24.2-29.7,22.1c-19.5-1.5-26.4-22.1-26.9-22.1c2.1-0.5,4.7-1.1,5.7-1.4
		c4.6-1.1,8.1-4.9,8.7-9.5c0.6-3.4-0.4-21-0.1-24.5l29.9,6.6c-0.4,7.3-3.3,24.3,6.9,27.4C224.6,760.1,226.5,760.6,228.4,761
		L228.4,761z" class="st9"></path>
</g>
<g class="st10" id="sh">
	<path d="M216.4,752.6c-0.5-1.5-0.8-3.1-0.9-4.6c-0.3-3.6-0.3-7.2,0.2-10.8c-6.1-0.8-11.8-3.3-16.5-7.2
		c-0.6,2-3.6,11-2.8,13C198,746.6,205.6,752.6,216.4,752.6L216.4,752.6z" class="st11"></path>
</g>
<path d="M228.4,700.7c0,0,7.3-7.8,6.8-22.8c-0.4-11.6-9.5-2.4-9.5-2.4s-0.4-8.3-6.1-6.5s-7.6,11-7.6,11" class="st11"></path>
<path d="M189,675.4c0,0-28.9,8.4-11.2,46.4l2.6-0.3l5.4-0.6" class="st11"></path>
<path d="M212.9,745.3c-11.8,1-27-3.8-30-19.6l-2.7-14.2c-3-15.7,2.8-30.1,17.6-32.9l0,0c14.8-2.8,28.3,7.8,31.3,23.5
	l1.2,6.3c0.4,2.2,0.6,4.4,0.7,6.6c0.2,5.8,0.6,14.6-2.2,21.1C226.1,742.3,220.4,744.6,212.9,745.3L212.9,745.3z" class="st9"></path>
<path d="M218.1,728.5c0.2,0,0.3,0.1,0.3,0.3v0.1c-0.6,2.8-3.4,4.5-6.2,4c-2.9-0.3-5-2.7-4.9-5.6c0-0.2,0.2-0.3,0.4-0.3
	h0.1c1.7,0.6,3.4,1,5.2,1.2C214.7,728.5,216.4,728.6,218.1,728.5L218.1,728.5z" class="st6"></path>
<g id="e1_eye">
	
		<ellipse ry="1.6" rx="1.6" cy="709.9" cx="224.7" class="st12" transform="matrix(0.9992 -3.961045e-02 3.961045e-02 0.9992 -27.9427 9.4575)"></ellipse>
</g>
<g id="e1_n">
	<path d="M214.3,724.2c-0.4,0-0.7-0.3-0.7-0.7c0-0.3,0.2-0.6,0.5-0.7l3.5-0.5l-2.4-6.9c-0.1-0.3,0-0.7,0.3-0.9
		c0.3-0.1,0.7,0,0.9,0.3v0.1l2.7,7.6c0.1,0.2,0,0.4-0.1,0.6c-0.1,0.2-0.3,0.3-0.5,0.3L214.3,724.2L214.3,724.2z" class="st12"></path>
</g>
<g id="e1_eb">
	<path d="M207.8,703.9c0.2,0.5-1.6,1.3-4.1,2.1s-4.7,1.3-4.9,0.7c-0.2-0.8,1.6-2.7,4-3.5S207.5,703.1,207.8,703.9
		L207.8,703.9z" class="st12"></path>
</g>
<g id="e1_eye-2">
	
		<ellipse ry="1.6" rx="1.6" cy="711.7" cx="207" class="st12" transform="matrix(0.9992 -3.961039e-02 3.961039e-02 0.9992 -28.0278 8.7578)"></ellipse>
</g>
<g id="e1_eb-2">
	<path d="M227.8,703.4c0,0.5-2,0.5-4.5,0.2s-4.9-0.7-4.8-1.3c0.1-0.8,2.2-1.9,4.8-1.6S227.9,702.6,227.8,703.4
		L227.8,703.4z" class="st12"></path>
</g>
<path d="M184.7,730.3c-4.5,0.9-9.1-3.3-9.9-7.8s2.3-7.7,6.8-8.5l2.9,2.6l4.1,13L184.7,730.3L184.7,730.3z" class="st9"></path>
<path d="M186.5,722.4c0.8-0.1,1.3-0.7,1.3-1.5c-0.4-5-1.3-21.6,4.2-23.8c4.3-1.7,16.4,2.7,26.2-1
	c4.3-1.6,8.7-1.3,9.5,0.7c0.3,0.8,1-11.6-7.6-19.4c-6.8-6.2-25.2-5-33-1.2c-21.6,10.6-6.2,38.9-6.2,38.9l2,6.4
	c0.2,0.6,0.8,1.1,1.4,1L186.5,722.4L186.5,722.4z" class="st11"></path>
<ellipse ry="9.2" rx="6.3" cy="678" cx="210.3" class="st11" transform="matrix(0.928 -0.3727 0.3727 0.928 -237.5419 127.2241)"></ellipse>
<g id="b_1_b">
	<path d="M197.9,777.2c-19.6-0.9-20.5-17.6-20.5-17.6s-9.7,0.6-16.2,1.5c-10.6,1.4-17.6,5-23.1,10.6
		c-5.2,5.2-8.3,10.8-5,46.5c2.4,25.9,0.7,82.7,0.7,82.7h118.5c0,0,7.1-74.5,8.1-86.2c1.9-22.2,3.4-41.6-1.2-46.2
		c-9.5-9.5-28.1-8.9-36.3-8.9C222.9,759.6,224.7,778.5,197.9,777.2z" class="st13"></path>
</g>
<g>
	<path d="M405.6,894.2c0.2-1.5-0.6-2.9-1.8-3.5c0-0.1,0.1-0.1,0.1-0.2c0-0.1-0.1-0.2-0.2-0.3h2.9c1.8,0,3.4-1.3,3.6-3
		c0.2-1.8-1-3.4-2.6-3.8v-0.1h1.2c1.7,0,3.2-1.1,3.5-2.8c0.4-2.2-1.3-4.1-3.4-4.1h-2.8l0,0c0,0,0,0,0-0.1c1.5-0.4,2.7-1.7,2.7-3.4
		c0.1-2-2.1-3.1-3.9-3.1l-16.1-0.2l4.2-1.9c1.7-0.8,2.7-2.7,2-4.4c-0.7-1.9-2.8-2.7-4.6-1.9l-23.2,10.3c-5.6,2.5-8.3,9-5.9,14.8l0,0
		c2.7,6.5,9,10.8,16.1,10.7l24.6-0.1C403.7,897.1,405.3,895.8,405.6,894.2L405.6,894.2z" class="st9"></path>
	<g class="st14">
		<path d="M390.2,876.3c0,0.2,0.1,0.3,0.3,0.3l15.3,0.2c0.2,0,0.3-0.1,0.3-0.3s-0.1-0.3-0.3-0.3l-15.3-0.2
			C390.3,875.9,390.2,876.1,390.2,876.3L390.2,876.3L390.2,876.3z" class="st11"></path>
	</g>
	<g class="st14">
		<path d="M389.9,883c0,0.2,0.1,0.3,0.3,0.3l17.1,0.2c0.2,0,0.3-0.1,0.3-0.3s-0.1-0.3-0.3-0.3l-17.1-0.2
			C390.1,882.7,389.9,882.8,389.9,883L389.9,883L389.9,883z" class="st11"></path>
	</g>
	<g class="st14">
		<path d="M389.6,890.3c0,0.2,0.1,0.3,0.3,0.3l13.6,0.2c0.2,0,0.3-0.1,0.3-0.3s-0.1-0.3-0.3-0.3l-13.6-0.2
			C389.7,890,389.6,890.1,389.6,890.3L389.6,890.3L389.6,890.3z" class="st11"></path>
	</g>
</g>
<g id="b_4_b">
	<path d="M370.8,900.1l-85.6,0.4c-8.4-0.6-15.6-6-18.6-13.9L224.4,793c-4.2-11.2,1.4-23.6,12.6-27.8l0,0
		c11.1-4.2,22.2-1.4,26.4,9.8l38.8,83.5l70.4,1.2C372.6,859.6,371.4,900.2,370.8,900.1L370.8,900.1z" class="st13"></path>
</g>
<path d="M258.8,819.9c0-0.2,0.1-0.3,0.3-0.3c0.2,0,0.3,0.1,0.3,0.3l-2.4,38.5c0,0.1-0.1,0.3-0.3,0.3l0,0
	c-0.2,0-0.3-0.2-0.3-0.3" class="st11"></path>
<g id="b_4_ha">
	<path d="M273.4,861.2l-17.4-6.1l2.5-0.2c1.7-0.1,2.9-1.6,2.9-3.2c-0.1-1.7-1.5-3-3.2-2.9c-0.1,0-0.1,0-0.2,0l-30.7,3.3
		l0.8,9.9c0.5,6.3,4.8,11.6,10.8,13.5l13.3,4.1c1.4,0.5,3-0.1,3.7-1.4c0.6-1.2,0.5-2.6-0.5-3.6l0.1-0.1c0-0.1,0-0.2,0-0.3l2.5,0.8
		c1.6,0.6,3.4-0.2,4-1.8c0.5-1.4,0-3-1.3-3.7l0.1-0.1l1,0.3c1.4,0.5,3-0.1,3.7-1.4c0.8-1.4,0.3-3.3-1.1-4.1c0,0,0,0,0-0.1l7.2,2.5
		c1.5,0.5,3.2-0.3,3.7-1.8C275.7,863.4,274.9,861.7,273.4,861.2L273.4,861.2z" class="st9"></path>
	<g class="st15" id="b_4_ha_sh">
		<path d="M263.9,864.4L263.9,864.4l-7.1-2.5c-0.1-0.1-0.2-0.2-0.2-0.4c0-0.1,0.2-0.2,0.4-0.2l0,0l7,2.5
			c0.1,0,0.2,0.2,0.2,0.4l0,0C264.2,864.3,264.1,864.4,263.9,864.4L263.9,864.4z" class="st12"></path>
	</g>
	<g class="st15" id="b_4_ha_sh-2">
		<path d="M260.4,869.5h-0.1l-5.5-2c-0.1-0.1-0.2-0.2-0.2-0.4c0.1-0.1,0.2-0.2,0.4-0.1l5.5,2c0.1,0.1,0.2,0.2,0.2,0.4
			C260.6,869.4,260.5,869.5,260.4,869.5z" class="st12"></path>
	</g>
	<g class="st15" id="b_4_ha_sh-3">
		<path d="M255.2,874.6h-0.1l-2.6-1c-0.1-0.1-0.2-0.2-0.2-0.4c0.1-0.1,0.2-0.2,0.4-0.2l0,0l2.6,1
			c0.1,0.1,0.2,0.2,0.2,0.4C255.4,874.6,255.3,874.7,255.2,874.6L255.2,874.6z" class="st12"></path>
	</g>
</g>
<g id="b_4_b-2">
	<path d="M240.2,882.7l-107.6,17.8c-0.8,0.1-1.6,0.1-2.3,0.1c-11.9,0-21.6-9.7-21.6-21.6c0-1.2,0.1-2.4,0.3-3.6
		l22.9-91.9c2-11.8,13.1-19.7,24.9-17.7c11.8,2,19.7,13.1,17.7,24.9l-17.6,64.1l78.2-10.7L240.2,882.7L240.2,882.7z" class="st13"></path>
</g>
<g id="b_4_st">
	<path d="M142.9,856.8c-0.2,0-0.3-0.2-0.2-0.3c0-0.1,0.1-0.2,0.2-0.2l13.4-2c0.1,0,0.3,0.1,0.3,0.2l0,0
		c0,0.2-0.1,0.3-0.2,0.3l0,0L142.9,856.8L142.9,856.8z" class="st11"></path>
</g>
<g id="b_4_st-2">
	<path d="M135.6,900.9c-0.1,0-0.3-0.1-0.3-0.2c0-0.2,0.1-0.3,0.2-0.3l0,0l104-17.9l-5.1-38l-77.6,10.3
		c-0.1,0-0.2,0-0.2-0.1c-0.1-0.1-0.1-0.2-0.1-0.2l8.4-36.2c0-0.2,0.2-0.3,0.3-0.2l0,0c0.2,0,0.3,0.2,0.2,0.3l-8.3,35.9l77.6-10.3
		c0.1,0,0.2,0,0.2,0.1c0.1,0,0.1,0.1,0.1,0.2l5.1,38.6c0,0.2-0.1,0.3-0.2,0.3l0,0L135.6,900.9L135.6,900.9z" class="st11"></path>
</g>
<path d="M101.7,511.7l21-64.4c0.8-2.3,2.9-3.9,5.4-3.9h85.4c3.1,0,5.6,2.5,5.6,5.6c0,0.6-0.1,1.2-0.3,1.7l-20.9,64.4
	c-0.8,2.3-2.9,3.9-5.4,3.9H107c-3.1,0-5.6-2.5-5.6-5.6C101.4,512.9,101.4,512.3,101.7,511.7L101.7,511.7z" class="st16"></path>
<path d="M118.7,513.9h-57c-1.4,0-2.6,1.1-2.6,2.6l0,0l0,0c0,1.4,1.2,2.6,2.6,2.6h57.1c1.4,0,2.6-1.2,2.6-2.6l0,0l0,0
	C121.3,515,120.2,513.9,118.7,513.9z" class="st16"></path>
<circle r="9" cy="484.4" cx="160.2" class="st6"></circle>
<g id="path-96">
	<path d="M913.9,578.8v-19.6c-0.1-3.3,2.4-6,5.6-6.1c3.3-0.1,6,2.4,6.1,5.6c0,0.2,0,0.3,0,0.5v19.6
		c-0.1,3.3-2.9,5.8-6.1,5.6C916.5,584.3,914,581.9,913.9,578.8z" class="st17"></path>
</g>
<g id="path-99">
	<path d="M938,582.7l19.8-24.4c2-2.5,5.8-2.9,8.3-0.9s2.9,5.8,0.9,8.3l-19.7,24.4c-2.1,2.5-5.8,2.8-8.3,0.7
		C936.4,588.8,936.1,585.2,938,582.7z" class="st17"></path>
</g>
<g id="path-102">
	<path d="M956.5,598.7L975,592c3.2-0.8,6.3,1.2,7.1,4.4c0.6,2.7-0.6,5.4-3.1,6.6l-18.5,6.7c-3.1,1-6.4-0.7-7.4-3.8
		C952.2,603,953.7,599.8,956.5,598.7L956.5,598.7z" class="st17"></path>
</g>
<g id="path-124">
	<path d="M268.7,256.2H150v-98.9h148.4v120.3L268.7,256.2z" class="st18"></path>
</g>
<g id="path-128">
	<path d="M137.6,232.8l-27.2,23.4V117.4h164.8v115.4H137.6z" class="st19"></path>
</g>
<g id="path-131">
	<path d="M169.8,175.4c0-5.5-4.4-9.9-9.9-9.9s-9.9,4.4-9.9,9.9s4.4,9.9,9.9,9.9l0,0
		C165.4,185.3,169.8,180.9,169.8,175.4L169.8,175.4z M204.4,175.4c0-5.5-4.4-9.9-9.9-9.9s-9.9,4.4-9.9,9.9s4.4,9.9,9.9,9.9
		C200,185.3,204.4,180.9,204.4,175.4L204.4,175.4z M239,175.4c0-5.5-4.4-9.9-9.9-9.9s-9.9,4.4-9.9,9.9s4.4,9.9,9.9,9.9l0,0
		C234.6,185.3,239,180.9,239,175.4L239,175.4L239,175.4z" class="st18"></path>
</g>
<path d="M797.9,306c-37-13.3-70.4-34.4-100.2-63.3c-18.9-18.1-33.9-39.9-43.9-64.1L813,226.1c4.4,1.3,6.8,5.9,5.6,10.2
	L797.9,306z" class="st20"></path>
<g id="path-134">
	<path d="M792.8,352.1l-38.3-43.4c-4.2-4.8-6.3-11.2-5.8-17.6l1.8-21.8c8.3,4,23.2,14,44.8,29.9c-8,12.7-8.4,30-1.2,52
		c0.1,0.3,0,0.7-0.2,0.9C793.5,352.5,793,352.4,792.8,352.1z" class="st21"></path>
</g>
<g id="path-137">
	<path d="M890.2,266.5c-21-9.9-38.3-11.6-51.8-5.3c-13.1-23.5-21.1-39.5-24.1-48.2l21.9,0.9c6.4,0.3,12.4,3.2,16.7,8
		l38.3,43.3c0.3,0.3,0.3,0.8,0,1.1C890.9,266.6,890.5,266.6,890.2,266.5z" class="st21"></path>
</g>
<g id="path-140">
	<path d="M845.4,271.1l-41.2,36.4l-4-2.5l43.2-38.1L845.4,271.1z" class="st22"></path>
</g>
<path d="M794.8,299.2c-21.5-15.8-36.4-25.6-44.6-29.6l-1.1,13c13,9.7,27.1,17.9,41.8,24.7
	C791.9,304.4,793.2,301.7,794.8,299.2z" class="st21"></path>
<path d="M814.6,212.7c2.9,8.6,10.9,24.6,23.8,47.9c2.6-1.2,5.4-2.2,8.2-2.8c-4.8-15.5-11.2-30.5-19.2-44.6L814.6,212.7
	z" class="st21"></path>
<path d="M840.4,266.8l-45.9,40.5c-41.7-19.3-75.5-49-101.4-88.9c-20.3-31.3-29-65.6-26.1-102.9
	c36.6,2.6,69.3,15.8,97.9,39.5C801.5,185.6,826.7,222.8,840.4,266.8z" class="st23"></path>
<g id="path-147">
	<path d="M799.8,307.3c-4.9-2.2-9.7-4.7-14.3-7.2l55-48.5c1.9,5,3.6,10.1,5.2,15.3L799.8,307.3z" class="st24"></path>
</g>
<g id="path-150">
	<path d="M834,323.5c6.3,4.6,6.6,10,4.9,15.2c-3-7.1-7.5-5.9-18.2-12.3s-16.6-15.2-13.3-21.8l34.9-30.8
		c16.3-2.2,28.9,22.7,25.1,36c-1.5-5.4-5.5-10.9-12.8-16.9c8.8,8.8,16.9,31.8,1.7,53.4C849.2,327.6,840.5,324.1,834,323.5z" class="st17"></path>
</g>
<g id="path-153">
	<path d="M853.5,309.5c-12.5,6.7-24.2,0.8-28.3-4.5c2.7,4.4,5.3,6.8,8.2,8c-7.3,1.2-19.8-7.2-17.5-15.8l18.7-16.5
		c3.7-1.2,8,2.5,10.7,8.6s1.7,8.4,5.3,10.5c-2.8,0.5-5.8,0-7.8-3.6C842.7,299.6,844,304.5,853.5,309.5z" class="st25"></path>
</g>
<g id="path-156">
	<path d="M671.7,116c17.3,1.1,34.3,4.9,50.4,11.2l-46.5,41C671.6,151.2,670.2,133.5,671.7,116z" class="st21"></path>
</g>
<path d="M718.2,168.5c-13.5,12.1-14.5,32.9-2.4,46.4s32.9,14.5,46.4,2.4c13.4-12.1,14.5-32.6,2.6-46.1
	C752.7,157.5,731.8,156.4,718.2,168.5z" class="st26"></path>
<g id="path-163">
	<path d="M722.2,173c-11,10-11.8,27-1.8,37.9c10,11,27,11.8,37.9,1.8c10.9-9.9,11.8-26.6,2.1-37.6
		C750.4,164,733.3,163,722.2,173z" class="st27"></path>
</g>
<g id="Oval-50">
	<path d="M732.5,175.8c-1.6,1.3-1.7,3.7-0.4,5.3s3.7,1.7,5.3,0.4s1.7-3.7,0.4-5.3l0,0
		C736.4,174.6,734.1,174.4,732.5,175.8z" class="st28"></path>
</g>
<g id="Oval-50-2">
	<path d="M744.6,175c-1.2,1.1-1.3,2.9-0.2,4.2c1,1.3,2.9,1.5,4.1,0.4c1.3-1,1.5-2.9,0.4-4.1c-0.1-0.1-0.1-0.1-0.2-0.2
		C747.7,174,745.9,173.9,744.6,175z" class="st28"></path>
</g>
<g class="st29" id="Oval-51">
	<path d="M781.8,195.9c-0.9,0.8-1,2.2-0.2,3.1c0.8,0.9,2.2,1,3.1,0.2c0.9-0.8,1-2.2,0.2-3.1l0,0
		C784.1,195.2,782.7,195.1,781.8,195.9L781.8,195.9z" class="st30"></path>
</g>
<g id="path-166">
	<path d="M782,250.8c-2.6-2.6-2.5-6.8,0.1-9.3l0,0c0.1-0.1,0.2-0.2,0.2-0.3c2.8-2.4,7-2.2,9.4,0.6
		c0.1,0.1,0.1,0.2,0.2,0.2l51.9,65.1c0.8,1,0.7,2.5-0.3,3.4s-2.5,0.8-3.4-0.1L782,250.8z" class="st21"></path>
</g>
<g id="path-47">
	<path d="M866.8,868c-17.7,0-32.1,7.3-32.1,16.3s14.4,16.3,32.1,16.3s32-7.3,32-16.3S884.5,868,866.8,868z" class="st31"></path>
</g>
<g id="path-50">
	<path d="M942,749.6c-15.4,27.6-23.3,54-23.8,79.2H815.5c-0.9-24.8-9.5-52.1-25.8-81.8c-12.4-17-19.1-37.5-19.1-58.6
		c0-54.1,43.1-97.9,96.2-97.9s96.2,43.8,96.2,97.9C963,710.7,955.7,732.2,942,749.6z" class="st25"></path>
</g>
<g id="path-53">
	<path d="M857.2,809.3v-62.2c0-5.3,4.3-9.6,9.6-9.6s9.6,4.3,9.6,9.6l0,0v62.2H857.2z" class="st17"></path>
</g>
<g class="st29" id="Combined-Shape-3">
	<path d="M813.9,812.5c-0.7-4.3-1.6-8.6-2.7-13.1h110.7c-1,4.4-1.8,8.7-2.5,13.1H813.9z" class="st30"></path>
</g>
<g>
	<g>
		<g>
			<g>
				<defs>
					<path d="M828.6,887.6c-10.8,0-19.5-8.7-19.5-19.5l0,0v-52.3c0-3.6,2.9-6.5,6.4-6.5c0,0,0,0,0.1,0H918
						c3.6,0,6.5,2.9,6.5,6.4c0,0,0,0,0,0.1v52.3c0,10.8-8.7,19.5-19.4,19.5c0,0,0,0-0.1,0H828.6z" id="SVGID_1_"></path>
				</defs>
				<clipPath id="SVGID_00000109737833472743536510000006013415215444024248_">
					<use style="overflow:visible;" xlink:href="#SVGID_1_"></use>
				</clipPath>
				<g style="clip-path:url(#SVGID_00000109737833472743536510000006013415215444024248_);">
					<rect height="78.3" width="115.4" class="st33" y="809.3" x="809.1"></rect>
				</g>
			</g>
		</g>
	</g>
</g>
<g id="path-60">
	<path d="M825.2,835.4c-3.6,0-6.5-2.9-6.5-6.5s2.9-6.5,6.5-6.5h83.2c3.6,0,6.5,2.9,6.5,6.5s-2.9,6.5-6.5,6.5H825.2z" class="st34"></path>
</g>
<g id="path-63">
	<path d="M818.7,848.4c0,1.7,0.7,3.4,1.9,4.6c1.2,1.2,2.9,1.9,4.6,1.9h83.2c1.7,0,3.4-0.7,4.6-2
		c1.2-1.2,1.9-2.9,1.9-4.6l0,0c0-3.6-2.9-6.5-6.5-6.5h-83.2C821.6,841.9,818.7,844.8,818.7,848.4z" class="st34"></path>
</g>
<g id="path-66">
	<path d="M818.7,868c0,1.7,0.7,3.4,1.9,4.6c1.2,1.2,2.9,1.9,4.6,1.9h83.2c1.7,0,3.4-0.7,4.6-2c1.2-1.2,1.9-2.9,1.9-4.6
		l0,0c0-3.6-2.9-6.5-6.5-6.5h-83.2C821.6,861.5,818.7,864.4,818.7,868z" class="st34"></path>
</g>
<g id="path-69">
	<path d="M886.7,700.7l14-20c2-2.9,6-3.6,8.9-1.7l0.1,0.1c2.9,2.1,3.5,6.1,1.5,9.1L891.9,716c-2,2.9-5.9,3.6-8.8,1.6
		c-0.7-0.5-1.3-1.1-1.7-1.7l-13.6-20.4l-16.1,20.7c-2.1,2.8-6.1,3.3-8.9,1.2c-0.6-0.5-1.2-1.1-1.6-1.7l-17-27.7c-1.9-3-1-7,2-9
		c3-1.9,6.9-1,8.8,2c0,0,0,0.1,0.1,0.1l12.2,19.9l15.8-20.4c2.1-2.8,6.1-3.3,8.9-1.2c0.6,0.4,1,0.9,1.4,1.5L886.7,700.7z" class="st17"></path>
</g>
<path d="M939.2,688.8c-0.3-5.6-1.2-11.2-2.7-16.6l6.4-1.8c1.6,5.9,2.6,11.9,2.9,18L939.2,688.8z" class="st6"></path>
<path d="M927.9,650.7c-6.7-12.2-17.2-21.7-31.3-28.4l2.8-6c15.4,7.2,27,17.7,34.3,31.2L927.9,650.7z" class="st6"></path>
</svg>
