<?xml version="1.0" standalone="no"?><!DOCTYPE svg PUBLIC "-//W3C//DTD SVG 1.1//EN" "http://www.w3.org/Graphics/SVG/1.1/DTD/svg11.dtd"><svg t="1690962084459" class="icon" viewBox="0 0 1024 1024" version="1.1" xmlns="http://www.w3.org/2000/svg" p-id="1865" xmlns:xlink="http://www.w3.org/1999/xlink" width="48" height="48"><path d="M419.612 802.645l92.104 92.047a34.475 34.475 0 1 1-48.754 48.753l-92.046-92.103a34.475 34.475 0 0 1 48.696-48.697z m363.976 8.761l73.102 73.102a34.475 34.475 0 1 1-48.754 48.754l-73.102-73.102a34.475 34.475 0 1 1 48.754-48.754z m-316.7-747.918a30.722 30.722 0 0 1 11.604 11.605l112.811 200.079 225.11 45.454a30.606 30.606 0 0 1 16.497 50.745L677.547 540.444l26.34 228.182a30.606 30.606 0 0 1-43.18 31.346l-208.782-95.574-208.896 95.574a30.606 30.606 0 0 1-43.178-31.346L226.247 540.5 70.77 371.371a30.606 30.606 0 0 1 16.498-50.745l225.166-45.454L425.13 75.093a30.606 30.606 0 0 1 41.756-11.605z m-15.076 104.676l-94.891 168.39-189.44 38.173L298.21 517.12l-22.186 192 175.787-80.44 175.73 80.44-22.187-192 130.844-142.336-189.497-38.23-94.947-168.39z m389.973 329.102l92.046 92.046a34.475 34.475 0 0 1-48.697 48.754l-92.103-92.046a34.475 34.475 0 1 1 48.754-48.754z" p-id="1866"></path></svg>