<?xml version="1.0" standalone="no"?><!DOCTYPE svg PUBLIC "-//W3C//DTD SVG 1.1//EN" "http://www.w3.org/Graphics/SVG/1.1/DTD/svg11.dtd"><svg t="1690946486347" class="icon" viewBox="0 0 1024 1024" version="1.1" xmlns="http://www.w3.org/2000/svg" p-id="1832" xmlns:xlink="http://www.w3.org/1999/xlink" width="48" height="48"><path d="M358.528 337.579a35.115 35.115 0 1 0 69.376-1.195l158.293 148.65 222.891-163.54 32.81 44.714-260.095 190.805-187.99-176.597-205.952 162.39-34.304-43.563 205.014-161.707z m38.187-30.123l0.213-0.17 0.213 0.213-0.426-0.043z" p-id="1833"></path><path d="M393.301 420.181a77.781 77.781 0 1 0 0-155.562 77.781 77.781 0 0 0 0 155.562z m0-42.666a35.115 35.115 0 1 1 0-70.23 35.115 35.115 0 0 1 0 70.23z" p-id="1834"></path><path d="M393.77 580.992l188.033 176.597 260.096-190.805-32.811-44.715-222.933 163.542-189.227-177.75L153.515 699.82l34.304 43.52z" p-id="1835"></path></svg>