<?xml version="1.0" standalone="no"?><!DOCTYPE svg PUBLIC "-//W3C//DTD SVG 1.1//EN" "http://www.w3.org/Graphics/SVG/1.1/DTD/svg11.dtd"><svg t="1690946482481" class="icon" viewBox="0 0 1024 1024" version="1.1" xmlns="http://www.w3.org/2000/svg" p-id="1678" xmlns:xlink="http://www.w3.org/1999/xlink" width="48" height="48"><path d="M838.37 361.4L567.4 124.02c-34.67-30.38-86.48-29.83-120.5 1.27L188.08 361.91c-18.68 17.07-29.39 41.38-29.39 66.68v373.34c0 49.82 40.53 90.35 90.35 90.35h529.8c49.82 0 90.35-40.53 90.35-90.35V429.36c0-26.03-11.23-50.8-30.82-67.96z m-29.18 440.54c0 16.73-13.62 30.35-30.35 30.35h-529.8c-16.73 0-30.35-13.61-30.35-30.35V428.6c0-8.5 3.6-16.66 9.87-22.4l258.83-236.61c5.8-5.3 13.13-7.96 20.48-7.96 7.13 0 14.26 2.51 20 7.53l270.97 237.38a30.334 30.334 0 0 1 10.35 22.83v372.57z" p-id="1679"></path></svg>