<?xml version="1.0" standalone="no"?><!DOCTYPE svg PUBLIC "-//W3C//DTD SVG 1.1//EN" "http://www.w3.org/Graphics/SVG/1.1/DTD/svg11.dtd"><svg t="1690946492865" class="icon" viewBox="0 0 1024 1024" version="1.1" xmlns="http://www.w3.org/2000/svg" p-id="2142" xmlns:xlink="http://www.w3.org/1999/xlink" width="48" height="48"><path d="M723.2 339.2c6.4 0 19.2 0 25.6-6.4l96-96c12.8-12.8 12.8-32 0-44.8s-32-12.8-44.8 0l-96 96c-12.8 12.8-12.8 32 0 44.8 0 0 6.4 6.4 19.2 6.4zM960 518.4H825.6c-19.2 0-32 12.8-32 32s12.8 32 32 32H960c19.2 0 32-12.8 32-32s-19.2-32-32-32zM748.8 768c-12.8-12.8-32-12.8-44.8 0s-12.8 32 0 44.8l96 96c6.4 6.4 12.8 6.4 25.6 6.4s19.2 0 25.6-6.4c12.8-12.8 12.8-32 0-44.8l-102.4-96zM480 236.8c19.2 0 32-12.8 32-32V70.4c0-19.2-12.8-32-32-32s-32 12.8-32 32v134.4c0 19.2 12.8 32 32 32z m-268.8 89.6c6.4 6.4 12.8 6.4 25.6 6.4s19.2 0 25.6-6.4c12.8-12.8 12.8-32 0-44.8l-96-96c-12.8-12.8-38.4-12.8-44.8 0s-12.8 32 0 44.8l89.6 96zM544 396.8L211.2 416c-25.6 0-51.2 19.2-64 44.8-6.4 32 0 57.6 19.2 76.8l44.8 44.8L57.6 736c-12.8 12.8-19.2 32-19.2 51.2s6.4 38.4 19.2 51.2L179.2 960c12.8 12.8 32 19.2 51.2 19.2 19.2 0 38.4-6.4 51.2-19.2l153.6-153.6 44.8 44.8c19.2 19.2 51.2 25.6 76.8 19.2 25.6-12.8 44.8-32 44.8-64l19.2-332.8c0-19.2-6.4-38.4-19.2-51.2-12.8-19.2-38.4-25.6-57.6-25.6z m-6.4 409.6c-6.4 6.4-6.4 6.4-12.8 6.4l-70.4-70.4c-12.8-12.8-32-12.8-44.8 0L230.4 921.6c-6.4 6.4-6.4 6.4-12.8 0L96 800v-12.8L275.2 608c12.8-12.8 12.8-32 0-44.8l-64-70.4v-6.4s0-6.4 6.4-6.4l332.8-19.2 6.4 6.4-19.2 339.2z" p-id="2143"></path></svg>