<?xml version="1.0" standalone="no"?><!DOCTYPE svg PUBLIC "-//W3C//DTD SVG 1.1//EN" "http://www.w3.org/Graphics/SVG/1.1/DTD/svg11.dtd"><svg t="1744351086615" class="icon" viewBox="0 0 1024 1024" version="1.1" xmlns="http://www.w3.org/2000/svg" p-id="1375" xmlns:xlink="http://www.w3.org/1999/xlink" width="200" height="200"><path d="M409.6 153.6H204.8a51.2 51.2 0 0 0-51.2 51.2v204.8a51.2 51.2 0 0 0 51.2 51.2h204.8a51.2 51.2 0 0 0 51.2-51.2V204.8a51.2 51.2 0 0 0-51.2-51.2z m0 256H204.8V204.8h204.8zM409.6 563.2H204.8a51.2 51.2 0 0 0-51.2 51.2v204.8a51.2 51.2 0 0 0 51.2 51.2h204.8a51.2 51.2 0 0 0 51.2-51.2V614.4a51.2 51.2 0 0 0-51.2-51.2z m0 256H204.8V614.4h204.8zM819.2 153.6H614.4a51.2 51.2 0 0 0-51.2 51.2V512a51.2 51.2 0 0 0 51.2 51.2h204.8a51.2 51.2 0 0 0 51.2-51.2V204.8a51.2 51.2 0 0 0-51.2-51.2z m0 358.4H614.4V204.8h204.8zM819.2 665.6H614.4a51.2 51.2 0 0 0-51.2 51.2v102.4a51.2 51.2 0 0 0 51.2 51.2h204.8a51.2 51.2 0 0 0 51.2-51.2V716.8a51.2 51.2 0 0 0-51.2-51.2z m0 153.6H614.4V716.8h204.8z" p-id="1376"></path></svg>